<?xml version="1.0" standalone="no"?>
<!DOCTYPE svg PUBLIC "-//W3C//DTD SVG 1.1//EN" "http://www.w3.org/Graphics/SVG/1.1/DTD/svg11.dtd" >
<svg xmlns="http://www.w3.org/2000/svg">
<metadata></metadata>
<defs>
<font id="itc_goudy_sans_probook_italic" horiz-adv-x="950" >
<font-face units-per-em="2048" ascent="1462" descent="-586" />
<missing-glyph horiz-adv-x="512" />
<glyph unicode="&#xfb01;" horiz-adv-x="987" d="M-59 -383q23 22 36 36.5t34.5 52t41.5 91.5q47 135 99 439l98 626h-68q-17 0 -45 -4l8 55q6 28 17 34.5t41 6.5h61l37 232q4 27 7.5 43t13 48.5t20.5 54t32 48.5t46 43t63 27.5t84 11.5q95 0 95 -47q0 -25 -19 -55l-20 -35q-12 12 -20 18t-25 12.5t-39 6.5q-26 0 -46 -12 t-31.5 -27.5t-21 -45.5t-14 -51t-10.5 -59l-35 -213h354q51 0 137 7l-106 -670q-10 -62 -10 -113q0 -36 13 -57.5t33.5 -27.5t46.5 -8t52 1l-33 -59q-16 -28 -27 -36.5t-36 -8.5q-80 0 -125 49t-45 116q0 49 22 181l66 424q8 53 8 67q0 30 -19.5 36.5t-78.5 6.5h-266 l-107 -678q-33 -208 -57.5 -306.5t-71.5 -190.5q-35 -68 -90 -68zM791 1245q0 37 24.5 62.5t56.5 25.5q41 0 63.5 -22.5t22.5 -53.5q0 -32 -22 -61t-66 -29q-40 0 -59.5 24t-19.5 54z" />
<glyph unicode="&#xfb02;" horiz-adv-x="987" d="M-61 -383q24 23 36.5 37t34.5 52t41 91q33 96 60 225.5t39 213.5l98 626h-66q-19 0 -47 -4l10 55q4 28 15 34.5t41 6.5h63l37 232q5 37 10.5 63t24 70t44.5 72t74 49.5t111 21.5q94 0 94 -47q-2 -28 -18 -55l-20 -35q-12 12 -20 18t-25 12.5t-39 6.5q-26 0 -45.5 -11.5 t-31.5 -27.5t-21.5 -44.5t-14 -51.5t-10.5 -60l-33 -213h61q23 0 60 4l-6 -43q-3 -19 -8 -30.5t-15.5 -16t-18 -5.5t-24.5 -1h-65l-107 -678q-33 -205 -57.5 -305t-69.5 -192q-33 -65 -92 -68zM629 137q0 21 5 66t10.5 80t6.5 39l148 933q14 100 14 129q0 23 -4 41l139 35 l-180 -1134q-18 -125 -18 -154q0 -35 16 -56t38.5 -26t47.5 -6.5t43 2.5l-31 -59q-8 -15 -13.5 -22.5t-20.5 -15t-37 -7.5q-17 0 -39.5 6t-53 20.5t-51 48t-20.5 80.5z" />
<glyph unicode="&#xfb03;" horiz-adv-x="1464" d="M-61 -383q24 21 37.5 36.5t34.5 52.5t40 91q62 172 99 439l100 626h-68q-19 0 -47 -4l10 55q4 28 15 34.5t41 6.5h63l37 232q5 37 10.5 63t24 70t44.5 72t74 49.5t111 21.5q94 0 94 -47q0 -25 -18 -55l-20 -35q-12 12 -20 18t-25 12.5t-39 6.5q-26 0 -46 -12t-31.5 -27.5 t-21 -45.5t-14 -51t-10.5 -59l-33 -213h395l37 232q4 27 7.5 43t13 48.5t20.5 54t32 48.5t46 43t63 27.5t84 11.5q95 0 95 -47q0 -25 -19 -55l-20 -35q-12 12 -20 18t-25 12.5t-39 6.5q-26 0 -46 -12t-31.5 -27.5t-21 -45.5t-14 -51t-10.5 -59l-35 -213h354q51 0 137 7 l-106 -670q-10 -62 -10 -113q0 -36 13 -57.5t33.5 -27.5t46.5 -8t52 1l-33 -59q-16 -28 -27 -36.5t-36 -8.5q-80 0 -125 49t-45 116q0 49 22 181l66 424q8 53 8 67q0 30 -19.5 36.5t-78.5 6.5h-266l-107 -678q-33 -208 -57.5 -306.5t-71.5 -190.5q-35 -68 -90 -68l-100 -2 q23 22 36 36.5t34.5 52t41.5 91.5q47 135 99 439l98 626h-395l-109 -678q-32 -205 -56 -304.5t-71 -192.5q-33 -65 -90 -68zM1303 1245q0 37 24.5 62.5t56.5 25.5q39 0 62.5 -21.5t23.5 -54.5q0 -32 -22 -61t-68 -29q-41 0 -59 24.5t-18 53.5z" />
<glyph unicode="&#xfb04;" horiz-adv-x="1499" d="M-61 -383q24 21 37.5 36.5t34.5 52.5t40 91q62 172 99 439l100 626h-68q-19 0 -47 -4l10 55q4 28 15 34.5t41 6.5h63l37 232q5 37 10.5 63t24 70t44.5 72t74 49.5t111 21.5q94 0 94 -47q0 -25 -18 -55l-20 -35q-12 12 -20 18t-25 12.5t-39 6.5q-26 0 -46 -12t-31.5 -27.5 t-21 -45.5t-14 -51t-10.5 -59l-33 -213h395l37 232q5 37 10.5 63t24 70t44.5 72t74 49.5t111 21.5q94 0 94 -47q0 -25 -18 -55l-20 -35q-12 12 -20 18t-25 12.5t-39 6.5q-26 0 -46 -12t-31.5 -27.5t-21 -45.5t-14 -51t-10.5 -59l-33 -213h61q23 0 60 4l-6 -43 q-3 -19 -8 -30.5t-15.5 -16t-18 -5.5t-24.5 -1h-63l-109 -678q-59 -363 -127 -497q-36 -70 -90 -70h-102q24 21 37.5 36.5t34.5 52.5t40 91q49 136 99 439l100 626h-395l-109 -678q-58 -356 -125 -497q-31 -70 -92 -70h-102zM1143 137q0 29 10 104.5t12 82.5l148 933 q14 86 14 132q0 21 -4 41l137 32l-178 -1136q-4 -19 -11 -73.5t-7 -84.5q0 -23 7 -39.5t21 -25t27 -13.5t32.5 -5.5t29.5 -0.5t26 2l-31 -59q-7 -14 -12 -21.5t-20 -15.5t-37 -8q-17 0 -40 6t-53.5 20.5t-50.5 48t-20 80.5z" />
<glyph horiz-adv-x="0" />
<glyph horiz-adv-x="682" />
<glyph unicode=" "  horiz-adv-x="512" />
<glyph unicode="&#x09;" horiz-adv-x="512" />
<glyph unicode="&#xa0;" horiz-adv-x="512" />
<glyph unicode="!" horiz-adv-x="620" d="M158 59q0 36 25 63.5t65 27.5q39 0 58.5 -21.5t19.5 -56.5q0 -40 -26 -65t-62 -25q-28 0 -54 17.5t-26 59.5zM229 365l133 983l148 18l-170 -965z" />
<glyph unicode="&#x22;" d="M336 844l72 522h147l-143 -522h-76zM600 844l72 522h147l-143 -522h-76z" />
<glyph unicode="#" d="M115 451l16 84h160l41 210h-160l16 91h162l86 444h101l-88 -444h176l86 444h98l-86 -444h160l-19 -91h-159l-41 -210h161l-16 -84h-162l-88 -451h-98l88 451h-174l-88 -451h-101l88 451h-159zM391 535h174l41 210h-174z" />
<glyph unicode="$" d="M51 166q0 16 12 92q67 -76 132.5 -112.5t162.5 -55.5l86 543q-117 86 -157 119q-44 37 -73.5 91t-29.5 118q0 78 43.5 145.5t112.5 101.5q36 19 78 29t61 11t64 3l22 140h101l-21 -140q104 -23 163.5 -62.5t59.5 -68.5q0 -10 -4 -20l-20 -58q-56 56 -96.5 79.5 t-116.5 45.5l-76 -477q59 -37 98.5 -67.5t82 -75t64 -98.5t21.5 -117t-22.5 -119t-66.5 -103t-117.5 -76.5t-168.5 -33.5l-36 -229l-105 -19l39 248q-197 30 -262 98q-31 27 -31 68zM303 969q0 -33 11 -61t38.5 -56.5t48 -45.5t64.5 -50l65 411q-104 -3 -165.5 -51.5 t-61.5 -146.5zM461 90q64 8 112 31.5t72.5 50.5t39.5 59t18.5 51.5t3.5 34.5q0 38 -13 74.5t-29 60t-44.5 50t-43 37t-40.5 28.5z" />
<glyph unicode="%" horiz-adv-x="1388" d="M88 795q0 49 6 101.5t32.5 135t72.5 144.5q40 54 94.5 76t89.5 22q51 0 90 -20t61.5 -50t36.5 -72.5t18.5 -81t4.5 -81.5q0 -42 -5.5 -89t-18 -103t-35.5 -105.5t-54.5 -91.5t-79.5 -66.5t-106 -24.5q-61 0 -103.5 26.5t-64 73.5t-30.5 97t-9 109zM193 797 q0 -222 114 -222q52 0 90 44t56.5 110.5t27 127t8.5 112.5q0 219 -110 219q-48 0 -86 -43t-58.5 -108t-31 -127t-10.5 -113zM330 0l678 1266h94l-678 -1266h-94zM840 293q0 235 110 383q40 55 93.5 76.5t91.5 21.5q51 0 89.5 -19.5t61 -49.5t36.5 -72t19 -80.5t5 -81.5 q0 -53 -7.5 -110.5t-28.5 -125.5t-53 -121t-86.5 -88.5t-123.5 -35.5q-61 0 -103.5 27t-64 73.5t-30.5 95.5t-9 107zM944 299q0 -223 113 -223q52 0 90.5 42.5t57.5 108t27.5 126.5t8.5 116q0 219 -108 219h-3q-49 0 -88 -45t-58.5 -111t-29.5 -126.5t-10 -106.5z" />
<glyph unicode="&#x26;" horiz-adv-x="1644" d="M113 393q0 87 32.5 174.5t94.5 155.5q32 35 71.5 58.5t63 31.5t59.5 16q-84 95 -84 201q0 80 48 163.5t143 133.5q111 59 307 59q116 0 186 -36q23 -14 23 -47q0 -9 -4 -21l-31 -65q-27 18 -48 28.5t-67 20.5t-104 10q-163 0 -248 -74q-37 -34 -57.5 -82.5t-20.5 -93.5 q0 -115 113 -221q-138 -36 -211 -96q-62 -53 -97.5 -131t-35.5 -164q0 -60 18.5 -109t48 -82t70 -58t80.5 -39t84.5 -22.5t77 -11t61.5 -2.5q23 0 51.5 1.5t84 10.5t106 23.5t107 43.5t97.5 68t68 100.5t27 137.5q0 90 -49.5 136t-143.5 46q-54 0 -93.5 -15.5t-57.5 -35 t-28.5 -46.5t-11.5 -38.5t-1 -23.5q0 -61 32 -107h-51q-17 0 -29 2.5t-31.5 12t-30.5 36t-11 68.5q0 116 97.5 183t238.5 67q19 0 143 -8t148 -7q88 0 147 20.5t96 76.5l33 -37q12 -14 12 -35q0 -44 -34.5 -72.5t-83.5 -38.5q-46 -11 -99 -13t-133 1q74 -74 74 -176 q0 -71 -25.5 -139.5t-80 -132t-132.5 -112t-191.5 -77t-248.5 -28.5q-144 0 -255.5 33.5t-178.5 91t-101 130t-34 156.5z" />
<glyph unicode="'" horiz-adv-x="620" d="M303 842l72 524h147l-141 -524h-78z" />
<glyph unicode="(" horiz-adv-x="657" d="M168 199q0 215 59.5 480t134.5 396q54 93 125.5 166t134 108t107.5 35q9 0 53 -8q-127 -69 -205 -161t-135 -240q-65 -167 -107 -416.5t-42 -417.5q0 -99 14.5 -179t46.5 -145t55 -100t68 -94q-27 -8 -37 -8q-38 0 -90 63q-26 32 -42.5 54t-46 73.5t-47.5 102t-32 128.5 t-14 163z" />
<glyph unicode=")" horiz-adv-x="657" d="M-123 -377q129 69 206.5 163t133.5 237q65 168 107.5 417t42.5 418q0 81 -12.5 153t-28 120t-45 99.5t-48 77.5t-51.5 68q36 8 37 8q34 0 90 -63q27 -34 41.5 -52.5t45.5 -72t48.5 -103t32.5 -128.5t15 -164q0 -215 -60 -480.5t-135 -396.5q-81 -141 -189.5 -225 t-177.5 -84q-12 0 -53 8z" />
<glyph unicode="*" d="M225 1092q0 17 13 34l30 58q6 -6 11.5 -11t13.5 -10.5t14.5 -9t19.5 -9.5t23 -10t30.5 -12t36 -13.5t46.5 -17t55 -20.5l4 172q0 123 90 123h56q-22 -31 -31 -96l-33 -207l148 76q68 37 96 37q36 0 47 -48l14 -53q-57 -3 -100 -20l-186 -68l116 -151q23 -23 23 -50 q0 -14 -7 -22.5t-30 -28.5l-47 -39q-12 49 -27 74l-104 176l-125 -178q-33 -47 -64 -47q-12 0 -22 8l-70 43q39 14 68 47l147 174l-205 49q-26 5 -38.5 16t-12.5 34z" />
<glyph unicode="+" horiz-adv-x="1024" d="M61 459v119h402v458h119v-458h401v-119h-401v-459h-119v459h-402z" />
<glyph unicode="," horiz-adv-x="475" d="M20 -162q35 22 55.5 37.5t47 46t45.5 68.5q-15 2 -23.5 4.5t-22 9t-20 20t-6.5 33.5q0 39 23 66t61 27q40 0 61 -30t21 -69q0 -23 -8 -49.5t-26.5 -56t-45 -52.5t-69 -38.5t-93.5 -16.5z" />
<glyph unicode="-" horiz-adv-x="475" d="M68 451l16 108h328l-17 -108h-327z" />
<glyph unicode="." horiz-adv-x="475" d="M86 59q0 35 25 63t65 28q39 0 58.5 -21.5t19.5 -56.5q0 -40 -26 -65t-62 -25q-30 0 -55 18t-25 59z" />
<glyph unicode="/" horiz-adv-x="620" d="M25 -27l524 1393h102l-524 -1393h-102z" />
<glyph unicode="0" d="M98 479q0 112 20 227.5t59.5 227t109.5 197.5t159 122q78 27 121 27q82 0 143.5 -33t96.5 -83t56.5 -120t28.5 -132t7 -132q0 -35 -1.5 -72.5t-12.5 -120.5t-30.5 -156.5t-59.5 -162.5t-95 -157q-105 -129 -276 -129q-75 0 -133 28t-93.5 73.5t-58.5 111t-32 134.5 t-9 150zM227 485q0 -200 62 -315q46 -86 147 -86q78 0 139.5 53.5t97 132t58.5 179t31 183.5t8 156q0 390 -203 390q-73 0 -134 -53.5t-98 -133t-62.5 -177t-35.5 -180.5t-10 -149z" />
<glyph unicode="1" d="M322 0q38 62 57 188l137 871q12 69 12 123q0 29 -8 65l154 33l-195 -1237q-3 -25 -9 -34t-26 -9h-122z" />
<glyph unicode="2" d="M31 0q259 259 389.5 406t220.5 278q98 143 98 262q0 66 -26.5 114.5t-68 72.5t-80.5 34.5t-75 10.5q-150 0 -264 -121l-43 39q-20 20 -20 37q0 19 29 44t75 48t113.5 39t136.5 16q163 0 259.5 -84t96.5 -213q0 -67 -19.5 -133.5t-57.5 -132t-77.5 -119t-96.5 -121.5 q-164 -196 -367 -389q44 12 108 12q38 0 104 -1t107 -1q128 0 236 27l-39 -66q-24 -39 -55 -49t-113 -10q-26 0 -166.5 2t-163.5 2q-182 0 -241 -4z" />
<glyph unicode="3" d="M23 170q105 -86 266 -86q90 0 161 29t111.5 75.5t61 99t20.5 105.5q0 48 -14 90.5t-34 73t-52 57.5t-58 43.5t-64 33t-56.5 23t-47.5 15.5q38 11 59 17.5t64.5 23t71 31t63 39.5t56 51.5t35 63t14.5 77.5q0 45 -20.5 76t-53 45t-61 19.5t-56.5 5.5q-141 0 -249 -93 l-35 41q-15 18 -15 35q0 42 108 80.5t220 38.5q126 0 208.5 -61t82.5 -168q0 -103 -63 -181t-189 -141q35 -21 58 -36.5t56 -45.5t52.5 -62t34 -80t14.5 -104q0 -85 -30 -159.5t-87.5 -133t-150 -92.5t-209.5 -34q-126 0 -223 41q-45 21 -45 61z" />
<glyph unicode="4" d="M-31 303l815 977h90l-139 -879q91 2 148 11l-27 -66q-7 -20 -21.5 -30t-25 -11.5t-31.5 -1.5h-59l-64 -403q-6 -39 -13.5 -51t-33.5 -21l-114 -35q24 59 36 117l70 393h-631zM184 401h434l136 693z" />
<glyph unicode="5" d="M43 90q0 4 1 11t1 10l8 61q61 -45 117.5 -66.5t134.5 -21.5t140.5 25t99.5 63t61.5 86t33.5 89.5t9 78.5q0 25 -5 54.5t-18.5 71t-44.5 84t-75 75.5q-35 26 -86.5 47t-85.5 31t-96 26l139 432q55 -6 133 -6q113 0 182.5 12.5t181.5 53.5l-34 -78q-16 -34 -50 -51 t-114 -27q-45 -6 -135 -6h-74l-86 -273q156 -42 246 -124q66 -59 107.5 -143.5t41.5 -186.5q0 -184 -132.5 -310t-330.5 -126q-62 0 -122 14.5t-85 26.5t-38 20q-25 15 -25 47z" />
<glyph unicode="6" d="M129 381q0 193 113 416.5t309 365.5q61 44 137.5 81.5t114.5 37.5q2 0 5.5 -0.5t13.5 -2t26 -3.5l76 -8q-99 -40 -177.5 -86.5t-131.5 -88.5t-103 -102t-80 -105t-74 -120q100 61 201 61q134 0 214.5 -96t80.5 -264q0 -63 -13.5 -127t-44.5 -129.5t-76.5 -115.5 t-115.5 -81.5t-155 -31.5q-153 0 -230 96q-90 114 -90 303zM254 362q0 -64 13 -114t34 -80.5t48.5 -50t54 -26.5t53.5 -7q78 0 140.5 56.5t95 141t32.5 175.5q0 51 -9 94t-30 84t-63.5 64.5t-102.5 23.5q-114 0 -190 -95t-76 -266z" />
<glyph unicode="7" d="M223 47q0 170 123 449q53 118 162 296t254 373h-377q-70 0 -93.5 -3.5t-62.5 -22.5l35 94q7 20 20 25.5t38 5.5h618q-17 -28 -93.5 -147t-156 -244.5t-125.5 -204.5q-198 -339 -198 -633q0 -50 4 -105l-84 33q-38 15 -51 29.5t-13 54.5z" />
<glyph unicode="8" d="M70 311q0 167 120 281q69 66 175 106q-31 15 -50 27t-52 41.5t-50.5 74.5t-17.5 103q0 61 27 120t76 107.5t125.5 78.5t166.5 30q72 0 128 -17.5t88 -43t52.5 -60.5t27.5 -65.5t7 -61.5q0 -40 -11.5 -77.5t-27.5 -65.5t-44 -56t-48.5 -45t-55 -38t-50 -29t-46.5 -23 q95 -28 148 -71q100 -83 100 -217q0 -81 -31 -157.5t-86 -137t-139 -97t-182 -36.5q-66 0 -126 19t-111.5 57.5t-82 103.5t-30.5 149zM197 301q0 -57 21 -101t55.5 -68t73.5 -36t81 -12q135 0 218 95.5t83 217.5q0 46 -14 81.5t-33.5 58.5t-58 43.5t-70 32.5t-86.5 30 q-73 -26 -127.5 -66t-84.5 -87t-44 -94t-14 -95zM322 930q0 -33 10 -60t24.5 -44t40 -32.5t45 -24t52.5 -19.5q268 91 268 266q0 76 -52.5 119t-129.5 43q-104 0 -181 -72t-77 -176z" />
<glyph unicode="9" d="M29 63q87 -36 174 -36q93 0 171.5 41t135 114t96 159.5t66.5 190.5q-27 -26 -48.5 -42.5t-70.5 -37t-102 -20.5q-56 0 -107.5 21.5t-94 63.5t-68 114.5t-25.5 165.5q0 88 25.5 172.5t72.5 154.5t122 113t167 43q155 0 235 -99.5t80 -275.5q0 -42 -6.5 -107t-26 -160 t-49 -190t-80.5 -191t-115 -169.5t-158.5 -119.5t-205.5 -46q-68 0 -107 8.5t-53 22.5t-18 39zM283 788q0 -130 58.5 -191.5t139.5 -61.5q44 0 86 18.5t82 58.5t65 116t25 179q0 125 -49 197t-133 72q-60 0 -108.5 -28t-78.5 -71t-50.5 -97t-28.5 -102t-8 -90z" />
<glyph unicode=":" horiz-adv-x="475" d="M86 59q0 36 25.5 63.5t64.5 27.5q37 0 57.5 -20.5t20.5 -55.5q0 -42 -26 -67t-64 -25q-28 0 -53 17.5t-25 59.5zM213 870q0 34 25.5 62.5t66.5 28.5q40 0 58 -23.5t18 -54.5q0 -39 -25.5 -64.5t-62.5 -25.5q-28 0 -54 17.5t-26 59.5z" />
<glyph unicode=";" horiz-adv-x="475" d="M20 -162q54 35 87 66t61 86q-15 2 -23.5 4.5t-22 9t-20 20t-6.5 33.5q0 37 22 65t62 28q41 0 61.5 -30t20.5 -69q0 -23 -8 -49.5t-26.5 -55.5t-45 -52t-69 -39t-93.5 -17zM217 872q0 35 25 63t65 28q39 0 58.5 -21.5t19.5 -56.5q0 -40 -26.5 -65t-61.5 -25 q-28 0 -54 17.5t-26 59.5z" />
<glyph unicode="&#x3c;" horiz-adv-x="1024" d="M61 459v119l928 444v-127l-786 -377l786 -377v-127z" />
<glyph unicode="=" horiz-adv-x="1024" d="M61 256v119h922v-119h-922zM61 662v118h922v-118h-922z" />
<glyph unicode="&#x3e;" horiz-adv-x="1024" d="M55 14v127l787 377l-787 377v127l928 -444v-119z" />
<glyph unicode="?" horiz-adv-x="731" d="M172 59q0 36 25.5 63.5t64.5 27.5q38 0 58 -21t20 -55q0 -42 -26 -67t-64 -25q-28 0 -53 17.5t-25 59.5zM217 1280q0 43 65 73.5t154 30.5q128 0 208.5 -65.5t80.5 -177.5q0 -34 -5.5 -62.5t-23 -59.5t-32 -53.5t-51 -60.5t-61 -62t-79.5 -77q-85 -80 -112 -169t-25 -204 l-53 35q-22 15 -31.5 33.5t-9.5 54.5q0 178 172 350q111 107 145.5 153.5t34.5 106.5q0 59 -42 103.5t-116 44.5q-108 0 -174 -86l-22 33q-1 1 -5.5 9t-8 14.5t-6.5 16.5t-3 19z" />
<glyph unicode="@" horiz-adv-x="1581" d="M121 635q0 98 29.5 201.5t94 205t155.5 181t226 129t294 49.5q145 0 259.5 -42.5t186 -116.5t108.5 -169.5t37 -206.5q0 -116 -36.5 -225t-94.5 -186.5t-132 -124.5t-146 -47q-68 0 -102 62t-25 159q-19 -29 -32 -48t-44.5 -56.5t-60.5 -60t-71 -41.5t-85 -19 q-75 0 -124.5 65.5t-49.5 187.5q0 129 60.5 256.5t151 206t177.5 78.5q42 0 74.5 -10.5t52.5 -30t30.5 -34t20.5 -35.5l17 88q44 3 88 16l-107 -471q-7 -24 -14.5 -74t-7.5 -76q0 -104 77 -104q39 0 83.5 26t86.5 74t76 110t55 141.5t21 160.5q0 221 -142.5 356.5 t-375.5 135.5q-108 0 -204 -25.5t-168.5 -69t-132.5 -102.5t-100.5 -125.5t-68.5 -139t-40.5 -142t-12.5 -134.5q0 -79 24.5 -161t75 -157t118.5 -134t163 -94t202 -35q71 0 136 14.5t124.5 44.5t95 52t89.5 59l41 -27q-51 -39 -89.5 -65t-106 -62t-146.5 -55t-164 -19 q-143 0 -266 57t-205.5 150t-129 213t-46.5 246zM596 498q0 -73 33 -118.5t84 -45.5q67 0 130.5 62.5t103 143.5t59.5 165q5 21 13.5 55.5t13 53t8 40t3.5 33.5q0 15 -5 34.5t-17 45t-39 42.5t-65 17q-64 0 -125.5 -57.5t-103.5 -140t-67.5 -172.5t-25.5 -158z" />
<glyph unicode="A" horiz-adv-x="1277" d="M-86 84q49 16 85.5 39t84 74.5t102.5 146t123 238.5q102 216 158.5 317t128.5 193q40 49 79 84.5t61 50t57 33.5q-151 -7 -181 -7q-132 0 -196.5 8t-79.5 19.5t-21 36.5l-20 92q33 -13 52 -19t64.5 -14t112.5 -14q167 -14 408 -14h141q31 -3 42.5 -20t19.5 -64 q28 -173 28 -486q0 -169 -14 -408t-14 -280q0 -40 4 -90h-197q13 25 18.5 36t13 37.5t13.5 63.5q32 166 39 398q-152 4 -305 4q-161 0 -301 -4q-101 -217 -169.5 -329t-133.5 -173q-36 -33 -68 -33q-12 0 -33 11t-28 18zM469 641q82 -4 283 -4q198 0 282 4q4 98 4 178 q0 96 -5.5 213.5t-10.5 153.5q-6 41 -17.5 54t-41.5 13q-44 0 -90 -29t-119 -112q-156 -180 -285 -471z" />
<glyph unicode="B" horiz-adv-x="1021" d="M68 0q13 23 20 37t20 62t25 118l139 879q9 52 9 78q0 94 -97 94q-30 0 -67 -11l28 52q21 36 41.5 51.5t57.5 15.5q106 0 145 -127q16 18 26 29t37.5 33t55.5 35t73.5 23.5t96.5 10.5q138 0 223.5 -74t85.5 -196q0 -45 -13.5 -93.5t-43 -100.5t-86 -98.5t-133.5 -76.5 q235 -61 235 -292q0 -117 -55 -216.5t-156 -160.5q-69 -40 -143 -56t-180 -16q-19 0 -115.5 2t-112.5 2q-54 0 -116 -4zM244 106q126 -4 157 -4q133 0 199 27q99 38 155 119t56 186q0 246 -317 246q-100 0 -162 -10zM348 778q78 1 119.5 3t98 12t96.5 28q66 31 111.5 84 t63 104t17.5 99q0 77 -48 120.5t-130 43.5q-43 0 -82.5 -11.5t-66 -26.5t-54 -39.5t-40 -38.5t-30.5 -36z" />
<glyph unicode="C" horiz-adv-x="1241" d="M135 612q0 107 22 210t75 205.5t131.5 179.5t202 125t276.5 48q204 0 317 -78.5t113 -195.5q0 -100 -67.5 -166t-166.5 -66q-48 0 -68 20t-14 58l7 45q25 -14 55 -14q56 0 89.5 37t33.5 84q0 69 -84.5 118.5t-216.5 49.5q-263 0 -415.5 -176.5t-152.5 -468.5 q0 -241 111.5 -389t325.5 -148q77 0 147.5 15t130 43.5t88 45t70.5 44.5l-10 -56q-8 -44 -16.5 -63t-26.5 -31q-17 -12 -44.5 -26t-78.5 -34t-124 -33t-153 -13q-94 0 -173 21.5t-135 58t-100.5 88t-71.5 107t-45 119t-25 121t-7 115.5z" />
<glyph unicode="D" horiz-adv-x="1314" d="M68 0q13 22 20 37.5t20 63t25 116.5l131 830q17 116 17 124q0 97 -103 97q-30 0 -59 -11l37 68q8 17 15.5 26.5t24.5 17t42 7.5q36 0 63 -10t45 -31.5t26.5 -36t20.5 -41.5q30 23 53.5 38.5t69 38t104.5 34.5t128 12q230 0 366.5 -145t136.5 -410q0 -169 -57 -329.5 t-160 -278.5q-61 -70 -126 -115.5t-133 -66.5t-124 -28t-127 -7q-24 0 -153 2t-150 2q-87 0 -153 -4zM246 115q127 -13 209 -13q139 0 229.5 22t161.5 79q125 100 197.5 270.5t72.5 355.5q0 232 -110 342q-53 51 -130.5 77t-156.5 26q-53 0 -100.5 -11.5t-77.5 -25 t-61.5 -38t-42.5 -36t-31 -33.5z" />
<glyph unicode="E" horiz-adv-x="802" d="M63 0q15 24 22 38.5t20 62t24 116.5l145 918q21 143 21 163q0 37 -14 68q105 -6 180 -6q23 0 145 3t142 3q72 0 94 -6t22 -29q0 -14 -2 -22l-12 -78q-100 33 -227 33q-62 0 -201 -11l-76 -473h191q76 0 147 17l-20 -133q-42 18 -134 18h-198l-92 -578q135 -6 202 -6 q85 0 141.5 4t82.5 9t69 16l-30 -70q-18 -37 -40.5 -47t-78.5 -10q-29 0 -186.5 2t-182.5 2q-50 0 -154 -4z" />
<glyph unicode="F" horiz-adv-x="768" d="M63 0q14 21 22 37t20.5 63t23.5 117l145 918q21 143 21 163q0 37 -14 68q163 -6 219 -6q22 0 136 3t132 3q23 0 34 -0.5t25 -3t19.5 -7.5t8.5 -15q2 -6 2 -14q0 -5 -1 -11l-12 -84q-33 12 -53.5 17.5t-66 10.5t-108.5 5q-43 0 -194 -11l-76 -473h189q78 0 141 19 l-23 -137q-15 9 -24 12t-32 5.5t-65 2.5h-200l-72 -451q-20 -120 -20 -163q0 -32 12 -68h-189z" />
<glyph unicode="G" horiz-adv-x="1314" d="M135 618q0 110 23.5 215t78 205t134.5 175t203 121t274 46q93 0 168.5 -17t124 -44.5t81 -64.5t46.5 -75t14 -77q0 -96 -67 -162t-164 -66q-86 0 -86 56q0 26 10 65q28 -12 51 -12q52 0 88.5 32t36.5 85q0 60 -50 101t-117 57t-144 16q-176 0 -307 -84t-198 -230 t-67 -335q0 -156 48 -274.5t152 -189.5t255 -71q88 0 159 20t103 42q36 23 45 98q35 235 35 250q0 13 -8 49h174q-21 -34 -31.5 -69t-23.5 -124l-82 -510q-14 -96 -37.5 -132t-65.5 -44l-106 -22q42 59 62 123.5t48 265.5q-81 -29 -142 -42t-148 -13q-233 0 -365 112 q-55 47 -96 111.5t-61 121.5t-31.5 121.5t-14 100t-2.5 69.5z" />
<glyph unicode="H" horiz-adv-x="1169" d="M63 0q22 35 37 80t29 137l145 918q21 143 21 165q0 38 -14 66h188q-39 -72 -63 -219l-62 -383q168 -4 264 -4q129 0 301 4l58 371q20 122 20 165q0 38 -14 66h190q-14 -25 -22.5 -44t-20 -63.5t-22.5 -111.5l-146 -916q-20 -123 -20 -159q0 -30 14 -72h-190 q14 21 21.5 37t20 62.5t23.5 117.5l70 438q-160 4 -287 4q-132 0 -276 -4l-68 -424q-20 -123 -20 -161t14 -70h-191z" />
<glyph unicode="I" horiz-adv-x="475" d="M63 0q14 21 22 37t20.5 63t23.5 117l145 918q21 139 21 165q0 38 -14 66h188q-39 -72 -63 -219l-146 -918q-20 -130 -20 -159q0 -38 14 -70h-191z" />
<glyph unicode="J" horiz-adv-x="475" d="M-176 -334q0 4 0.5 9t1.5 13.5t2 16.5l12 74q14 -25 23.5 -38t33 -27.5t54.5 -14.5q63 0 88 56t51 214l184 1166q21 133 21 165q0 38 -14 66h190q-21 -37 -35 -81t-30 -138l-191 -1200q-16 -98 -24 -138t-26.5 -87.5t-45.5 -73.5q-71 -66 -154 -66q-11 0 -26 1.5 t-45.5 8.5t-50 26t-19.5 48z" />
<glyph unicode="K" horiz-adv-x="1095" d="M63 0q14 21 22 37t20.5 63t23.5 117l145 918q21 139 21 165q0 38 -14 66h190q-21 -33 -35 -77t-30 -142l-64 -399l530 454q8 7 25.5 22t22.5 19.5t18 15.5t17 15t15 14t17 16t17 16.5t21 21t24 24.5l36 -47q19 -25 19 -41q0 -12 -8.5 -24.5t-16 -19.5t-32.5 -30 l-564 -483l303 -383q168 -214 273 -250l-53 -61q-23 -27 -45 -27q-33 0 -95 63.5t-186 217.5l-344 434l-76 -486q-20 -133 -20 -161q0 -36 14 -68h-191z" />
<glyph unicode="L" horiz-adv-x="802" d="M63 0q14 21 22 37t20.5 63t23.5 117l145 918q21 139 21 165q0 38 -14 66h188q-40 -73 -63 -219l-166 -1036q93 -11 190 -11q198 0 311 31l-36 -76q-10 -20 -20 -31.5t-26 -16.5t-28 -6t-39 -1q-26 0 -154.5 2t-132.5 2q-168 0 -242 -4z" />
<glyph unicode="M" horiz-adv-x="1607" d="M53 0q42 62 72 217l168 918q18 95 18 141q0 50 -14 90h152l313 -1135l655 1135h154q-31 -44 -55 -219l-121 -918q-15 -111 -15 -157q0 -41 17 -72h-199q47 75 66 217l135 920l-656 -1137h-32l-310 1137l-153 -908q-4 -25 -9.5 -56.5t-8.5 -47.5t-5 -34t-2 -32 q0 -35 15 -59h-185z" />
<glyph unicode="N" horiz-adv-x="1351" d="M68 0q21 34 36 79.5t29 137.5l154 977q-67 109 -133 172h168l710 -1141l129 910q19 143 19 163q0 42 -13 68h181q-15 -26 -23 -44.5t-20 -63.5t-23 -111l-182 -1147h-58l-669 1077l-119 -848q-21 -144 -21 -159q0 -35 13 -70h-178z" />
<glyph unicode="O" horiz-adv-x="1241" d="M119 526q0 50 4 102.5t19.5 133t40.5 154t72 157.5t110 152q50 54 104.5 88t111 47t92.5 16.5t87 3.5q86 0 159.5 -28t134 -86.5t95.5 -160t35 -237.5q0 -75 -9.5 -154.5t-32 -167t-55.5 -167.5t-84.5 -153t-114 -127t-148.5 -85.5t-185 -31.5q-77 0 -140.5 18.5 t-107.5 49.5t-78 75t-54.5 91t-33.5 103t-17.5 105t-4.5 102zM254 520q0 -217 77 -323.5t236 -106.5q80 0 148 30.5t116.5 80.5t87 117.5t62 139t39 148t21.5 141t6 121.5q0 184 -64 285q-37 60 -102.5 89.5t-122.5 29.5q-42 0 -76.5 -5t-78 -19t-85 -46t-78.5 -80 q-57 -74 -96.5 -162t-57.5 -171.5t-25 -146.5t-7 -122z" />
<glyph unicode="P" horiz-adv-x="987" d="M66 0q14 21 21.5 37t20.5 62.5t25 117.5l135 864q13 81 13 93q0 96 -105 96q-14 0 -59 -10l28 55q29 57 93 57q99 0 149 -117q66 63 135.5 94t159.5 31q148 0 236 -93.5t88 -231.5q0 -58 -15.5 -116.5t-55.5 -120.5t-100.5 -109t-160 -77t-225.5 -30q-63 0 -127 6 l-60 -379q-18 -117 -18 -161q0 -41 12 -68h-190zM338 705h125q92 0 165 22t118 57t75 83t41.5 96t11.5 100q0 61 -20 104.5t-53 65t-64 30.5t-63 9q-161 0 -268 -144z" />
<glyph unicode="Q" horiz-adv-x="1169" d="M35 100l10 62q90 -53 260 -53q213 0 389 153q84 73 143.5 161.5t88.5 175t41 158t12 138.5q0 213 -111 307q-85 72 -200 72q-159 0 -272 -123t-113 -307q0 -15 0.5 -27.5t4.5 -41.5t11.5 -51t23.5 -50t38 -46.5t57.5 -31t79.5 -12.5q90 0 161 55l-10 -72 q-6 -30 -19.5 -46.5t-43.5 -26.5q-55 -19 -109 -19q-55 0 -108.5 18t-104.5 57.5t-82.5 114t-31.5 175.5q0 146 68.5 270t190.5 197t269 73q98 0 179.5 -36.5t137.5 -96.5q115 -129 115 -356q0 -65 -11 -137t-37 -162t-80.5 -183.5t-131.5 -170.5q-44 -45 -94 -80t-75 -47.5 t-71 -32.5q55 -5 86.5 -10t87.5 -17.5t106.5 -36.5t98.5 -59q67 -48 101 -119.5t34 -126.5q0 -56 -69 -80l-62 -22q11 57 11 74q0 59 -32.5 116t-94.5 104t-163.5 76t-226.5 29q-26 0 -160.5 -3t-156.5 -3q-21 0 -38.5 2t-38 8t-34 16.5t-21.5 29.5q-4 12 -4 27q0 8 1 17z " />
<glyph unicode="R" horiz-adv-x="1058" d="M68 0q13 23 20 37t20 62t25 118l135 854q11 74 11 98q0 44 -21 71.5t-84 27.5q-26 0 -55 -11l22 52q16 33 38 50t67 17q34 0 60.5 -12t43 -34.5t25 -38.5t16.5 -38q127 127 277 127q121 0 202.5 -79.5t81.5 -204.5q0 -87 -35.5 -168.5t-108 -146.5t-169.5 -91 q160 -378 244 -491q25 -36 52 -61.5t40 -34t37 -21.5l-31 -49q-20 -33 -55 -33q-109 0 -286 380q-43 94 -126 292q-62 -4 -90 -4q-26 0 -92 4l-70 -443q-18 -119 -18 -161q0 -32 12 -68h-188zM348 772q62 -8 105 -8q70 0 127 14t94.5 36t65.5 53t42.5 60t23.5 61.5t11 53.5 t2 41q0 95 -46.5 142t-117.5 47q-74 0 -139.5 -39.5t-109.5 -104.5z" />
<glyph unicode="S" horiz-adv-x="839" d="M29 121v86q119 -117 276 -117q50 0 98 14.5t90.5 42.5t68.5 78.5t26 114.5q0 61 -35.5 127.5t-142.5 187.5q-66 74 -95.5 109.5t-63.5 86.5t-46 93.5t-12 93.5q0 42 12 86.5t40.5 91t69.5 82.5t105.5 59t142.5 23t136 -19t75 -36t17 -59q0 -8 -1.5 -21t-3.5 -34.5 t-4 -41.5q-20 21 -33.5 33t-42 31.5t-66.5 29t-83 9.5q-32 0 -63.5 -7t-62.5 -23.5t-54.5 -40.5t-38 -61t-14.5 -81q0 -77 38.5 -138t153.5 -192q88 -100 136 -177.5t58.5 -118t10.5 -87.5q0 -51 -13 -99.5t-45 -97.5t-80 -85.5t-125 -59t-173 -22.5q-76 0 -143 17.5 t-93 45.5q-12 14 -16 29t-4 47z" />
<glyph unicode="T" horiz-adv-x="1095" d="M115 1206l35 103q12 36 58.5 54.5t156.5 18.5q128 0 330.5 -11t277.5 -11q141 0 264 47l-31 -78q-8 -21 -14 -31.5t-21 -24t-42 -19t-68 -5.5q-72 0 -313 19l-164 -1039q-19 -127 -19 -161q0 -39 13 -68h-191q14 22 21.5 37t21 62.5t25.5 117.5l166 1053q-98 4 -156 4 q-97 0 -171 -12t-105 -23.5t-74 -32.5z" />
<glyph unicode="U" horiz-adv-x="1277" d="M131 1257l25 56q28 65 106 65q73 0 117 -51q43 -45 43 -135q0 -45 -14 -133l-101 -623q-12 -71 -12 -131q0 -51 14.5 -90.5t37 -62.5t54 -37.5t60 -19.5t59.5 -5q25 0 54 3.5t74 14t95.5 35.5t94.5 62q83 71 106.5 122t42.5 169l100 639q19 143 19 165q0 42 -12 66h188 q-41 -67 -65 -219l-111 -696q-33 -211 -33 -289q0 -70 41 -117l-74 -43q-30 -18 -43 -18q-59 0 -59 116q0 24 4 74q-92 -97 -194 -143q-111 -49 -236 -49q-185 0 -283 102q-63 67 -63 207q0 71 12 141l103 631q12 71 12 108q0 99 -92 99q-31 0 -70 -13z" />
<glyph unicode="V" horiz-adv-x="1277" d="M121 1366h205q-7 -31 -7 -43q0 -59 43 -193l283 -903l494 924q39 73 58 115.5t23 59t5 40.5h209q-84 -92 -197 -295l-606 -1087h-41l-365 1153q-6 23 -18 57t-36.5 87t-49.5 85z" />
<glyph unicode="W" horiz-adv-x="1898" d="M139 1366h193q0 -49 10.5 -102.5t52.5 -192.5l264 -860l283 547l-131 405q-42 134 -80 203h182q0 -90 60 -289l262 -866l481 944q46 92 62 132t22 79h199q-56 -63 -93 -123t-120 -215l-563 -1044h-37l-201 632l-336 -632h-39l-362 1124q-22 68 -34 102.5t-32 78t-43 77.5 z" />
<glyph unicode="X" horiz-adv-x="1132" d="M-59 121q24 -8 45 -8q41 0 100.5 24t106.5 64q83 70 151 167.5t201 333.5q-36 133 -66 228t-56 155.5t-45 96t-42 51.5t-38.5 20t-41.5 4q-34 0 -70 -20l9 51q3 20 6 29.5t12 23t28 19.5t48 6q103 0 169 -80.5t117 -241.5q39 -126 62 -194q148 270 282.5 393t241.5 123 q21 0 31 -10q9 -10 8 -23q0 -1 -2 -33l-6 -59q-58 0 -106.5 -21t-104.5 -75q-154 -154 -305 -443q104 -321 145 -430q12 -32 25 -57t24 -41.5t27 -29t26 -19.5t29 -12.5t28.5 -7t31.5 -5.5l-37 -63q-25 -37 -60 -37q-14 0 -32.5 6.5t-47 24.5t-60 61t-58.5 105 q-9 21 -16 37.5t-12 29.5t-14 40.5t-15 45.5l-23.5 70.5l-30.5 91.5q-1 2 -16 47q-109 -190 -177 -285t-151 -161q-61 -49 -121.5 -81t-99.5 -32q-22 0 -33 9t-20 28z" />
<glyph unicode="Y" horiz-adv-x="1095" d="M104 1231l11 63q7 42 30 57t60 15q132 0 262 -178q49 -66 84.5 -133t51.5 -109.5t40 -114.5q173 287 338 457q53 55 73.5 66.5t69.5 11.5h105q-99 -80 -166.5 -151.5t-175.5 -213.5q-203 -267 -230 -436l-53 -336q-18 -117 -18 -161q0 -41 12 -68h-190q14 21 21.5 37 t20.5 62.5t25 117.5l60 381q8 64 8 80q0 95 -60 232t-141 239q-74 100 -172 100q-32 0 -66 -18z" />
<glyph unicode="Z" horiz-adv-x="1095" d="M43 -20q95 340 377 641q194 209 268.5 291.5t146.5 173.5t113 165q-43 -6 -98 -6q-14 0 -172 10q-180 13 -240 13q-85 0 -150 -9.5t-91.5 -18.5t-65.5 -26l33 95q16 48 61 55q58 12 160 12q50 0 258 -14q150 -10 219 -10q147 0 277 32q-39 -103 -73 -169t-122 -184 t-237 -279q-129 -141 -178.5 -196.5t-113.5 -130t-89.5 -114.5t-53 -90t-57.5 -117q115 11 178 11q49 0 182 -9q157 -10 203 -10q151 0 248 58l-35 -97q-17 -44 -66.5 -56.5t-148.5 -12.5q-32 0 -205 9t-202 9q-211 0 -326 -26z" />
<glyph unicode="[" horiz-adv-x="583" d="M80 -383l276 1749h297l-14 -100h-184l-246 -1549h184l-16 -100h-297z" />
<glyph unicode="\" horiz-adv-x="620" d="M246 1366h100l84 -1393h-100z" />
<glyph unicode="]" horiz-adv-x="583" d="M-70 -383l15 100h184l246 1549h-185l17 100h297l-277 -1749h-297z" />
<glyph unicode="^" horiz-adv-x="1024" d="M82 467l401 797h119l402 -797h-132l-331 657l-328 -657h-131z" />
<glyph unicode="_" horiz-adv-x="1024" d="M0 -154h1024v-102h-1024v102z" />
<glyph unicode="`" horiz-adv-x="1024" d="M358 1362h181l147 -229h-125z" />
<glyph unicode="a" horiz-adv-x="987" d="M78 319q0 95 21 188t63.5 176.5t101.5 148t140 102t174 37.5q137 0 188 -105l20 52q6 19 19 27.5t41 8.5h72q-54 -113 -93 -274q-53 -225 -53 -436q0 -51 10.5 -87.5t23.5 -54t36 -27t36 -11t35 -1.5q-5 -20 -9.5 -31.5t-14 -24.5t-26.5 -19t-42 -6q-15 0 -29 2.5 t-37.5 15t-41 34t-32.5 65t-19 102.5q-22 -54 -57.5 -95.5t-70.5 -64t-73.5 -37t-64 -18.5t-44.5 -4q-13 0 -27 1t-43 8.5t-54 19.5t-53.5 37.5t-49 60t-34 89t-13.5 121.5zM203 324q0 -242 149 -242q58 0 121.5 37t112.5 106q51 71 90 225t39 259q0 71 -39 116t-115 45 q-67 0 -131.5 -40.5t-115 -110.5t-81 -173.5t-30.5 -221.5z" />
<glyph unicode="b" horiz-adv-x="987" d="M90 -8l201 1265q16 98 16 129q0 14 -6 44l139 32l-102 -647q63 83 131 119.5t154 36.5q55 0 100 -15.5t73.5 -40t50.5 -58t33 -64.5t17.5 -66t8 -56t1.5 -40q0 -81 -16.5 -167t-54 -173t-91 -155t-134.5 -111t-177 -43q-84 0 -141 32q-59 31 -73 37t-27 6q-38 0 -103 -65 zM236 160q96 -78 198 -78q67 0 124.5 34t98 90t69.5 128.5t42.5 148.5t13.5 150q0 24 -2 47t-12 60t-27 63.5t-52 46.5t-83 20q-90 0 -164 -69q-44 -42 -75.5 -91.5t-49.5 -108t-25.5 -93.5t-17.5 -94z" />
<glyph unicode="c" horiz-adv-x="839" d="M78 348q0 104 34.5 213t95 201t154.5 150.5t203 58.5q94 0 169 -43.5t75 -126.5q0 -73 -53.5 -126.5t-134.5 -53.5q-66 0 -66 41q0 17 16 49q20 -4 39 -4q42 0 63 22t21 51q0 39 -33.5 64.5t-97.5 25.5q-101 0 -187 -81t-132.5 -203.5t-46.5 -251.5q0 -30 4 -60.5t17 -66 t33.5 -62.5t56.5 -45t83 -18t89 11.5t82 36.5t64 43.5t62 51.5l-8 -51q-8 -64 -19 -84t-61 -53q-86 -55 -209 -55q-159 0 -235 96q-78 99 -78 270z" />
<glyph unicode="d" horiz-adv-x="987" d="M72 332q0 111 35.5 224.5t97 205.5t154 150.5t196.5 58.5q128 0 193 -92l59 378q16 96 16 134q0 19 -4 39l137 32l-155 -987q-25 -165 -25 -221q0 -49 9.5 -84.5t21 -53.5t33 -29.5t33.5 -13.5t34 -5l-14 -43q-18 -43 -72 -43q-12 0 -26 2.5t-38 15.5t-42.5 35t-33.5 67 t-17 105q-15 -34 -25.5 -53t-35.5 -49t-60 -56q-89 -67 -199 -67q-67 0 -117.5 23.5t-79 59t-46.5 85t-23.5 92.5t-5.5 90zM197 317q0 -235 161 -235q72 0 133.5 46t104.5 120q46 76 80.5 229.5t34.5 233.5q0 72 -41 115.5t-109 43.5q-97 0 -180.5 -72.5t-133.5 -200.5 t-50 -280z" />
<glyph unicode="e" horiz-adv-x="802" d="M70 334q0 125 40 243t105.5 204t153.5 138t180 52q104 0 152.5 -50.5t48.5 -111.5q0 -45 -16.5 -92t-58 -96.5t-102 -88t-157 -63.5t-215.5 -25q-13 -60 -13 -127q0 -115 52 -175t141 -60q52 0 102.5 22t82 46.5t79.5 68.5l-8 -55q-7 -51 -18 -70t-44 -43 q-39 -29 -100 -49t-127 -20q-130 0 -204 89t-74 263zM225 539q99 4 179 30t126.5 63.5t70.5 78t24 77.5t-24 59.5t-66 22.5q-19 0 -39.5 -4t-58.5 -23t-71.5 -51.5t-72.5 -98.5t-68 -154z" />
<glyph unicode="f" horiz-adv-x="512" d="M-61 -383q24 21 37.5 36.5t34.5 52.5t40 91q62 172 99 439l100 626h-68q-19 0 -47 -4l10 55q4 28 15 34.5t41 6.5h63l37 232q5 37 10.5 63t24 70t44.5 72t74 49.5t111 21.5q94 0 94 -47q0 -25 -18 -55l-20 -35q-12 12 -20 18t-25 12.5t-39 6.5q-26 0 -46 -12t-31.5 -27.5 t-21 -45.5t-14 -51t-10.5 -59l-33 -213h61q23 0 60 4l-6 -43q-3 -19 -8 -30.5t-15.5 -16t-18 -5.5t-24.5 -1h-63l-109 -678q-34 -212 -57.5 -308.5t-69.5 -188.5q-36 -70 -92 -70h-100z" />
<glyph unicode="g" horiz-adv-x="913" d="M-25 -190q0 63 27 115t74 83q59 39 162 49q-27 16 -42 27.5t-30.5 37.5t-15.5 58q0 33 12.5 61t27 44.5t39 32t35.5 20.5t29 12q-20 11 -29.5 17t-31.5 26t-33 41t-21 58t-10 83q0 33 6.5 71.5t21 84.5t42.5 87t65 75.5t94.5 55t126.5 20.5q98 0 168 -41h133q46 0 90 20 l-38 -71q-12 -24 -24 -30.5t-42 -6.5q-5 0 -36 1t-36 1q2 -4 6.5 -17.5t6.5 -20t6 -19t5.5 -22t3 -22.5t1.5 -26q0 -34 -6.5 -75t-26.5 -96t-52 -99.5t-89 -79.5t-131 -43q-62 -5 -93 -14.5t-59 -37.5q-37 -32 -37 -69q0 -14 6.5 -31t32 -38.5t66.5 -29.5q33 -7 186 -20 q18 -2 37.5 -6t53 -17.5t58 -33t43.5 -56t19 -82.5q0 -93 -64 -159t-163 -96.5t-219 -30.5q-176 0 -275 61q-80 47 -80 148zM100 -170q0 -42 24.5 -70.5t64.5 -40t70 -15t63 -3.5q10 0 23 0.5t47.5 4t65.5 9.5t68 19t64 31t45 47t18 65q0 60 -51 91.5t-178 31.5 q-148 0 -236 -43t-88 -127zM287 565q0 -58 34 -103.5t103 -45.5q60 0 106 34t69.5 85.5t34.5 99t11 86.5q0 66 -33.5 106.5t-103.5 40.5q-93 0 -157 -96t-64 -207z" />
<glyph unicode="h" horiz-adv-x="987" d="M90 0l201 1257q16 98 16 129q0 24 -4 44l137 32l-98 -626q22 22 36 35t44.5 34.5t58.5 34t71.5 22t90.5 9.5q57 0 98.5 -12.5t62 -29.5t32.5 -43.5t14 -44.5t2 -42q0 -45 -12 -121l-60 -377q-14 -88 -14 -129q0 -34 14.5 -55t36.5 -26.5t47.5 -8t46.5 1.5l-32 -57 q-15 -27 -29 -36t-41 -9q-41 0 -71.5 12.5t-47.5 30t-27 40t-13 39t-3 31.5q0 49 15 141l61 404q12 71 12 111q0 79 -102 79q-41 0 -90.5 -17t-100 -50t-90 -92t-51.5 -133l-94 -578h-117z" />
<glyph unicode="i" horiz-adv-x="475" d="M123 147q0 42 22 181l66 424q14 86 14 131q0 29 -6 45l141 33l-106 -670q-10 -72 -10 -113q0 -36 13 -57.5t34 -27.5t47 -8t51 1l-33 -59q-15 -28 -27.5 -36.5t-35.5 -8.5q-78 0 -124 48.5t-46 116.5zM268 1245q0 37 25 62.5t57 25.5q39 0 62.5 -21.5t23.5 -54.5 q0 -32 -22 -61t-68 -29q-41 0 -59.5 25t-18.5 53z" />
<glyph unicode="j" horiz-adv-x="475" d="M-190 -330v10q0 8 2 15l6 55q48 -28 67 -31q10 -2 23 -2q86 0 129 73.5t69 238.5l113 721q14 82 14 133q0 24 -6 45l144 33l-148 -926q-34 -214 -103 -316t-200 -102q-43 0 -68.5 8t-32 19.5t-9.5 25.5zM281 1245q0 38 25 63t56 25q40 0 63.5 -22t23.5 -54t-23 -61 t-66 -29q-42 0 -60.5 24t-18.5 54z" />
<glyph unicode="k" horiz-adv-x="913" d="M92 0l199 1257q16 98 16 132q0 21 -4 41l137 32l-141 -897l432 348q53 41 76 41q18 0 25 -10t14 -37l16 -59q-46 -2 -102 -47l-277 -219q80 -221 172 -379q22 -39 45.5 -65.5t49 -40.5t40 -19t39.5 -10l-51 -37q-27 -22 -42.5 -30.5t-35.5 -8.5q-26 0 -49.5 14.5 t-44 42.5t-35 53t-32.5 62q-75 149 -144 356l-119 -98l-67 -422h-117z" />
<glyph unicode="l" horiz-adv-x="475" d="M119 137q0 29 10 104.5t12 82.5l148 933q14 100 14 132q0 21 -4 41l137 32l-178 -1136q-4 -19 -11 -73.5t-7 -84.5q0 -23 7 -39.5t21 -25t27 -13.5t32.5 -5.5t29.5 -0.5t26 2l-31 -59q-7 -14 -12 -21.5t-20 -15.5t-37 -8q-17 0 -40 6t-53.5 20.5t-50.5 48t-20 80.5z" />
<glyph unicode="m" horiz-adv-x="1460" d="M72 860l34 66q18 35 68 35q146 0 168 -136q39 35 61 52.5t63 43.5t85.5 38t95.5 12q98 0 152 -58q24 -31 32 -88q33 31 55.5 49t63 44.5t88 39.5t101.5 13q32 0 62.5 -8.5t59.5 -26.5t46.5 -52t17.5 -79q0 -49 -12 -109l-56 -350q-18 -103 -18 -168q0 -61 37 -84 q17 -12 51 -12q13 0 59 8l-36 -70q-25 -38 -72 -38q-60 0 -110 45t-50 125q0 57 23 196l57 363q10 45 10 82q0 6 -1.5 15.5t-12.5 26.5t-29 25q-22 10 -55 10q-20 0 -49.5 -7t-71.5 -28t-79 -53t-68 -89.5t-43 -129.5l-90 -563h-117l113 709q8 32 8 73q0 6 -0.5 12.5 t-6 21.5t-14.5 26t-28.5 19.5t-45.5 8.5q-37 0 -83.5 -19t-93 -53.5t-82.5 -90.5t-46 -121l-94 -586h-117l113 707q6 48 6 67q0 51 -29 73.5t-67 22.5q-24 0 -53 -10z" />
<glyph unicode="n" horiz-adv-x="987" d="M74 860l30 60q10 22 27 32.5t53 10.5q38 0 66.5 -12.5t43.5 -27t25.5 -39t13 -37.5t5.5 -32q27 31 48 50t60.5 47.5t90.5 43.5t110 15q26 0 49.5 -2.5t54 -12.5t52 -26t36.5 -45.5t15 -69.5q0 -29 -10 -86l-74 -481q-8 -47 -8 -70q0 -28 8.5 -47.5t23 -28.5t34 -14 t40.5 -4.5t43 0.5l-34 -61q-12 -22 -25.5 -31.5t-40.5 -9.5q-26 0 -51 6t-53.5 22.5t-46 54t-17.5 91.5q0 50 8 82l74 471q1 6 3 23t3.5 31.5t1.5 24.5q0 36 -22 58q-24 24 -72 24q-68 0 -137.5 -32t-124.5 -97t-68 -147l-92 -594h-117l111 688q8 72 8 90q0 39 -24 66.5 t-68 27.5q-18 0 -53 -12z" />
<glyph unicode="o" d="M76 342q0 149 38.5 270.5t104 198.5t150 118.5t180.5 41.5q76 0 134 -23.5t92 -59.5t55 -86.5t28.5 -97.5t7.5 -100q0 -109 -30 -217t-86 -199.5t-147.5 -148.5t-203.5 -57q-77 0 -137 28t-94 69t-56 93t-29 93t-7 77zM201 346q0 -36 4.5 -69.5t18.5 -69.5t35.5 -62.5 t59.5 -43.5t87 -17q73 0 132 38t96 96t62 131t35 139.5t10 125.5q0 125 -42 190.5t-154 65.5q-152 0 -248 -146.5t-96 -377.5z" />
<glyph unicode="p" horiz-adv-x="987" d="M14 -383q24 31 31 53.5t18 96.5l142 890q12 60 12 119q0 44 -26 69t-62 25q-15 0 -55 -10l30 68q18 35 78 35q150 0 150 -172v-9q18 27 31 43.5t44 47.5t61.5 49.5t77.5 33.5t99 15q116 0 186 -78q78 -88 78 -256q0 -182 -67.5 -333.5t-179.5 -236.5t-242 -85 q-48 0 -88 15.5t-59.5 32t-43.5 42.5l-49 -305q-10 -57 -10 -89q0 -28 20 -61h-176zM270 256q0 -90 48 -132t106 -42q103 0 186 79.5t128.5 211t45.5 286.5q0 211 -161 211q-116 0 -222 -135q-48 -64 -89.5 -214t-41.5 -265z" />
<glyph unicode="q" horiz-adv-x="987" d="M72 336q0 53 11 116.5t33.5 136.5t61.5 139.5t90 121.5t125 88t160 33q63 0 135 -29q5 -2 30 -14t47.5 -21.5t29.5 -9.5q38 0 84 57l-185 -1165q-10 -71 -10 -92q0 -23 4 -55l-137 -25l82 516q-20 -23 -31.5 -36t-40.5 -38t-56 -39t-68.5 -26t-86.5 -12q-124 0 -201 90.5 t-77 263.5zM193 311q0 -100 42 -164.5t119 -64.5q18 0 36.5 2.5t49.5 13.5t58.5 29t59.5 54t58.5 83.5t50.5 121.5t38 165l38 237q-74 82 -194 82q-76 0 -139.5 -44t-102 -109.5t-65.5 -144.5t-38 -145t-11 -116z" />
<glyph unicode="r" horiz-adv-x="620" d="M76 0l121 750q14 88 14 135q0 25 -6 41l131 35l-25 -162q98 162 217 162q25 0 41 -6.5t22.5 -19t8.5 -23.5t2 -27q0 -10 -6 -58l-4 -28q-39 26 -84 26q-182 0 -236 -327l-79 -498h-117z" />
<glyph unicode="s" horiz-adv-x="731" d="M27 66q0 18 4 30l10 66q80 -80 221 -80q60 0 104.5 18.5t67 47.5t33 57t10.5 55q0 56 -34.5 99.5t-135.5 127.5q-48 39 -68.5 58t-44.5 48t-32 57t-8 65q0 119 91 187.5t228 68.5q41 0 85.5 -8t83 -31t38.5 -55q0 -28 -43 -91q-24 25 -40 39t-55.5 29.5t-88.5 15.5 q-82 0 -127 -41.5t-45 -103.5q0 -50 33 -87.5t161 -139.5q127 -104 127 -232q0 -133 -100 -208.5t-258 -75.5q-81 0 -166 28q-51 17 -51 56z" />
<glyph unicode="t" horiz-adv-x="548" d="M113 860l8 47q4 31 14 39t41 8h72l16 111q12 86 12 94q0 18 -8 45l142 33l-45 -283h69q22 0 72 4l-8 -53q-6 -30 -28 -35.5t-120 -7.5l-94 -596q-8 -48 -8 -80q0 -54 32.5 -79t84.5 -25q15 0 28 1.5t25 5t19 6t19 8t15 6.5l-10 -62q-2 -12 -6 -21t-15 -20.5t-35 -17.5 t-59 -6q-59 0 -101 13.5t-64 32t-34.5 47t-15 48.5t-2.5 47q0 44 8 84l96 608h-67q-22 0 -53 -2z" />
<glyph unicode="u" horiz-adv-x="987" d="M119 862l22 58q18 43 66 43q53 0 89 -42.5t36 -117.5q0 -26 -10 -96l-76 -478q-8 -54 -8 -75q0 -39 28.5 -55.5t67.5 -16.5q122 0 221 86q92 82 117 250l53 330q14 86 14 135q0 18 -6 45l141 33l-112 -711q-8 -49 -8 -80q0 -88 96 -88q15 0 55 4l-33 -61q-13 -25 -29 -34 t-44 -9q-78 0 -114 36.5t-46 104.5q-133 -141 -317 -141q-201 0 -201 163q0 38 8 82l76 469q6 54 6 82q0 84 -92 84z" />
<glyph unicode="v" horiz-adv-x="913" d="M66 850l28 61q9 18 15.5 26.5t24.5 16t48 7.5q44 0 76 -15.5t48 -36t25 -48.5t11 -45.5t2 -35.5q0 -53 -8 -97t-45 -212q-43 -198 -43 -270q0 -64 35 -97q25 -22 67 -22q70 0 133 50t107 129.5t76.5 178t48.5 197.5t16 186q0 31 -5 57t-10 37.5t-16 36.5h95q28 0 39 -5 t17.5 -25t6.5 -66q0 -28 -5 -84.5t-20 -160.5t-55 -218.5t-98 -199.5q-66 -97 -156.5 -155t-183.5 -58q-96 0 -156.5 59t-60.5 152q0 58 19 159t28 127q35 155 42 192t7 83q0 106 -96 106q-15 0 -57 -10z" />
<glyph unicode="w" horiz-adv-x="1425" d="M63 852l41 78q17 33 78 33q15 0 32.5 -3t42.5 -13.5t44 -28.5t33 -51.5t14 -78.5q0 -57 -10.5 -113t-40.5 -183q-55 -238 -55 -297q0 -43 21.5 -70.5t44.5 -35t46 -7.5q22 0 47 8t58 31t63 59t60 98.5t51 143.5q47 173 92 532h137q-40 -172 -79.5 -397t-39.5 -309 q0 -23 3 -44t13.5 -52.5t38 -50.5t68.5 -19q77 0 148.5 72t120.5 182.5t78.5 242t29.5 250.5q0 51 -7 74.5t-26 50.5h62q66 0 84 -12t18 -70q0 -52 -7.5 -121t-26 -154.5t-45.5 -170t-70 -165.5t-95 -142.5t-124.5 -99t-155.5 -37.5q-53 0 -93 14.5t-61 33.5t-35.5 48.5 t-18 46.5t-7.5 41q-15 -23 -26 -38t-40.5 -46t-59 -50t-76 -34.5t-97.5 -15.5q-98 0 -157.5 56t-59.5 140q0 51 9 104.5t40 184.5q36 157 45.5 208.5t9.5 88.5q0 55 -28.5 76.5t-67.5 21.5q-16 0 -64 -10z" />
<glyph unicode="x" d="M-29 76q36 7 57 14.5t54.5 31.5t73.5 68q31 34 225 308q-26 74 -44 120t-41.5 94t-45 74.5t-48 43t-57.5 16.5q-14 0 -45 -8l13 51q8 38 32 55t50 17q12 0 22.5 -1t32 -9t40 -21t43.5 -41t45.5 -65.5t43 -98t39.5 -135.5q52 102 109.5 177t99 110.5t83 56.5t58.5 24t29 3 q41 0 41 -74l-2 -43q-28 -1 -51 -5.5t-47.5 -18.5t-42 -24.5t-43.5 -39t-40.5 -45t-46.5 -61t-48.5 -68.5t-57.5 -84q32 -98 57.5 -166.5t46.5 -112t35.5 -67.5t32 -35t28 -13t31.5 -2q13 0 53 4l-10 -47q-9 -38 -31.5 -52.5t-60.5 -14.5q-61 0 -94 24t-60 82 q-44 84 -106 303q-90 -165 -190 -287t-160 -122q-39 0 -66 37z" />
<glyph unicode="y" horiz-adv-x="876" d="M10 -383q130 122 228 309q27 50 39 94t12 109q0 92 -24.5 231.5t-61.5 260.5q-23 72 -45.5 120.5t-44.5 74t-34.5 35t-35.5 21.5l45 60q25 31 59 31q32 0 64 -40.5t57 -106t41 -118.5t29 -108q49 -212 49 -438q230 495 291 667q22 61 22 111q0 16 -2 24h150 q-35 -115 -77.5 -212.5t-199.5 -426.5q-143 -305 -346 -632q-29 -46 -43.5 -56t-40.5 -10h-131z" />
<glyph unicode="z" horiz-adv-x="876" d="M10 0l678 870q-47 -16 -88 -16q-15 0 -170 14q-58 4 -113 4q-51 0 -84.5 -7.5t-49 -16.5t-42.5 -29l11 68q8 52 32 69t101 17q23 0 130 -8.5t111 -8.5q110 -8 176 -8q124 0 183 6l-668 -864q37 6 47 6q70 0 182 -49q111 -45 166 -58.5t111 -13.5q41 0 59.5 5t46.5 20 l-47 -80q-13 -23 -31 -34t-51 -11q-44 0 -95.5 13.5t-209.5 66.5q-96 32 -156 44t-143 13q-44 0 -86 -12z" />
<glyph unicode="{" horiz-adv-x="694" d="M100 485l6 29q85 35 136 65.5t79.5 65t38 70t9.5 88.5q0 13 -3.5 78.5t-3.5 76.5q0 39 2.5 69.5t12.5 72t27.5 73.5t50.5 68t78.5 62t114.5 48t155 33l-6 -41q-57 -15 -92.5 -28t-71 -35t-55.5 -51t-36.5 -74.5t-24 -106t-9.5 -145.5q-1 -41 -2.5 -63.5t-8.5 -61.5 t-18.5 -63.5t-34 -58t-54 -58t-80.5 -51t-111 -47.5q86 -21 147.5 -79.5t61.5 -160.5q0 -45 -29 -164q-29 -118 -38 -166t-9 -94q0 -30 6.5 -53t25.5 -48t60.5 -45t103.5 -34l-6 -39q-132 19 -225 76q-57 35 -79.5 76t-22.5 100q0 71 53 252q31 97 38 124.5t7 57.5 q0 36 -15.5 65t-47.5 51t-59 35.5t-71 30.5z" />
<glyph unicode="|" horiz-adv-x="1024" d="M473 -512v2048h121v-2048h-121z" />
<glyph unicode="}" horiz-adv-x="694" d="M-104 -383l6 39q37 10 54 15t47.5 16.5t45.5 21.5t38 28.5t34.5 39.5t26.5 52.5t22 69t13 87.5t7 110q1 40 2.5 62t8 62.5t18 66.5t34.5 61t54.5 59.5t80.5 50t112 42.5q-27 7 -43 13.5t-44.5 24.5t-62.5 48q-59 50 -59 153q0 31 7.5 68.5t39.5 163.5q31 128 31 186 q0 25 -2.5 42.5t-13.5 41.5t-31.5 40.5t-59 33.5t-92.5 28l6 41q136 -20 230 -77q102 -63 102 -179q0 -35 -9 -72t-44 -153q-32 -115 -40.5 -149t-8.5 -58q0 -54 53 -100.5t139 -81.5l-4 -29q-153 -54 -208.5 -111t-55.5 -173q0 -14 3 -82.5t3 -79.5q0 -222 -127 -311 q-128 -84 -313 -111z" />
<glyph unicode="~" horiz-adv-x="1024" d="M45 457q51 86 111 133t143 47q110 0 242 -70q7 -3 33.5 -16t36 -17t31.5 -13t35.5 -12.5t32 -7t35.5 -3.5q91 0 177 139l77 -74q-52 -87 -112 -135t-142 -45q-44 0 -91.5 12.5t-70 22.5t-75.5 35q-65 34 -112 51.5t-97 17.5q-90 0 -176 -139z" />
<glyph unicode="&#xa1;" horiz-adv-x="620" d="M104 -412l170 963l111 37l-133 -981zM289 879q0 40 26 66t62 26q28 0 54 -18t26 -60q0 -35 -25 -62.5t-65 -27.5t-59 21.5t-19 54.5z" />
<glyph unicode="&#xa2;" d="M176 614q0 80 21.5 156.5t71.5 147t122 108.5q33 18 69.5 27.5t52 10.5t52.5 3l23 133h100l-20 -135q93 -13 144.5 -52t51.5 -69q0 -17 -14 -31l-27 -34q-47 51 -79 69.5t-91 30.5l-104 -662q80 -3 128 10.5t91 43.5l-8 -56q-8 -49 -55 -68t-170 -18l-37 -231l-105 -21 l43 269q-260 74 -260 368zM293 612q0 -61 13 -109.5t29 -76t42 -49t39.5 -28.5t34.5 -15l102 651q-71 0 -124 -37.5t-81 -96.5t-41.5 -119.5t-13.5 -119.5z" />
<glyph unicode="&#xa3;" d="M119 0q26 22 39.5 34t44 42.5t48.5 54.5t43 64t38.5 78t24 89t10.5 105q0 51 -17 149h-57q-66 -2 -105 -10l35 60q16 28 28 33.5t48 5.5h37q-2 12 -41 206q-6 35 -6 78q0 69 22 122.5t56 84.5t79.5 51t86.5 26.5t83 6.5q161 0 283 -74q47 -27 60.5 -44t13.5 -38 q0 -22 -12 -41l-29 -61q-24 31 -35 44t-46 40t-77 45q-74 29 -143 29q-97 0 -157 -52t-60 -139q0 -45 10 -99.5t41 -184.5h207q62 0 143 6l-33 -54q-18 -30 -34.5 -35.5t-75.5 -5.5h-195q12 -77 12 -110q0 -65 -14 -126.5t-40.5 -117t-44 -86.5t-46.5 -74q38 1 89.5 0.5 t124.5 -1.5t87 -1q59 0 102.5 3.5t61.5 7t72 14.5l-54 -86q-11 -17 -26.5 -26.5t-28 -11t-31.5 -1.5q-36 0 -223.5 2t-218.5 2q-117 0 -180 -4z" />
<glyph unicode="&#xa4;" horiz-adv-x="1228" d="M82 176l201 201q-88 109 -88 260q0 75 24.5 145t63.5 115l-201 201l94 94l197 -201q117 88 264 88q151 0 260 -88l197 201l94 -94l-197 -201q84 -113 84 -260q0 -156 -84 -260l197 -201l-94 -94l-197 201q-104 -84 -260 -84q-160 0 -264 84l-197 -201zM317 637 q0 -130 93 -225t227 -95q131 0 223 95t92 225q0 131 -92 227.5t-223 96.5q-133 0 -226.5 -96.5t-93.5 -227.5z" />
<glyph unicode="&#xa5;" d="M14 358l17 93h375l8 92l-33 92h-324l17 92h272l-104 297q-30 90 -48 132t-53 108h195q-15 -112 29 -240l129 -379l247 379q40 59 68.5 125.5t38.5 114.5h205q-61 -62 -95 -105t-94 -135l-192 -297h270l-16 -92h-322l-61 -92l-19 -92h375l-16 -93h-375l-21 -137 q-25 -150 -12 -221h-164q35 69 58 221l20 137h-375z" />
<glyph unicode="&#xa6;" horiz-adv-x="1024" d="M473 338h121v-676h-121v676zM473 686v676h121v-676h-121z" />
<glyph unicode="&#xa7;" d="M117 -172q0 12 4 18l26 70q84 -88 232 -88q95 0 153 56t58 124q0 33 -12.5 63.5t-47.5 70t-70.5 72.5t-107.5 97q-126 114 -169.5 187t-43.5 141q0 61 34 120t87 95q49 32 152 55q-28 26 -44.5 45t-32.5 60t-16 92q0 64 22.5 114.5t56 79.5t77.5 48t82.5 25.5t75.5 6.5 q65 0 136 -19.5t85 -45.5q9 -17 4 -58l-14 -86q-20 20 -32 30.5t-42 32.5t-65 33t-74 11q-16 0 -33 -2t-45.5 -12t-50 -26.5t-37.5 -49.5t-16 -78q0 -59 48 -118t167 -171q112 -104 154 -174.5t42 -142.5q0 -194 -256 -275q34 -35 52 -57.5t34.5 -63.5t16.5 -88 q0 -53 -20.5 -104t-59.5 -94t-103.5 -69.5t-144.5 -26.5q-28 0 -67 5t-85.5 15t-78 31.5t-31.5 50.5zM264 653q0 -14 3.5 -29t6.5 -26t12.5 -27t13.5 -23t17 -24t16 -20.5t19 -21.5l15 -17q111 -115 165 -160q95 13 151 70.5t56 122.5q0 33 -14.5 66t-62.5 89 q-14 16 -95.5 98t-91.5 93q-108 -24 -159.5 -74.5t-51.5 -116.5z" />
<glyph unicode="&#xa8;" horiz-adv-x="1024" d="M387 1235q0 48 29 76t63 28q29 0 49.5 -10t28.5 -26t11 -28t3 -24q0 -37 -25 -68.5t-73 -31.5q-43 0 -64.5 25t-21.5 59zM692 1235q0 47 28.5 75.5t63.5 28.5q30 0 50.5 -10.5t28.5 -26.5t11 -28t3 -23q0 -37 -25 -68.5t-74 -31.5q-43 0 -64.5 25.5t-21.5 58.5z" />
<glyph unicode="&#xa9;" horiz-adv-x="1646" d="M141 684q0 143 56 272.5t151 223t226.5 149t275.5 55.5t275.5 -55.5t226.5 -149t151 -223t56 -272.5q0 -144 -56.5 -274.5t-151.5 -224.5t-226.5 -149.5t-274.5 -55.5t-274.5 55.5t-226.5 149.5t-151.5 224.5t-56.5 274.5zM221 684q0 -130 49.5 -248t134 -203t201 -135.5 t244.5 -50.5q127 0 243.5 50.5t201 135.5t134.5 203t50 248q0 128 -49.5 245t-134 202t-201 135.5t-244.5 50.5t-244.5 -50.5t-201 -135.5t-134 -202t-49.5 -245zM494 678q0 114 34 196.5t90.5 125.5t117.5 62t128 19q88 0 163 -19t75 -38q0 -12 -31 -92q-76 76 -203 76 q-121 0 -199.5 -80t-78.5 -240q0 -158 76.5 -244t205.5 -86q54 0 95.5 10t70 30.5t41.5 33t31 35.5v-96q0 -13 -5 -21.5t-8.5 -11.5t-15.5 -10q-99 -43 -209 -43q-178 0 -278 105.5t-100 287.5z" />
<glyph unicode="&#xaa;" horiz-adv-x="716" d="M143 889q0 71 22.5 139.5t64 124.5t108.5 90.5t149 34.5q39 0 77 -25t40 -45l31 56h94q-41 -74 -59 -160q-35 -175 -35 -262q0 -30 9 -49.5t26 -26.5t28 -8.5t29 -1.5q-5 -39 -19.5 -54.5t-60.5 -15.5q-13 0 -25 3.5t-30 14t-28.5 37.5t-10.5 68q-21 -37 -53 -63.5 t-64 -38t-55 -16.5t-39 -5q-14 0 -25.5 1t-33 5t-39 11.5t-37 23t-33 36t-22.5 53.5t-9 73zM244 911q0 -145 98 -145q37 0 78 22.5t74 63.5t56 116t23 124q0 45 -24.5 75.5t-77.5 30.5q-88 0 -157.5 -81t-69.5 -206z" />
<glyph unicode="&#xab;" horiz-adv-x="768" d="M104 508q30 26 48.5 44.5t54 57.5t74.5 93.5t79 123.5h76q-70 -196 -188 -319q68 -153 114 -311h-75q-71 150 -99.5 199.5t-83.5 111.5zM360 508q32 28 49 44.5t54 56.5t75.5 94.5t79.5 123.5h74q-72 -195 -188 -319q75 -168 114 -311h-75q-71 150 -99.5 199.5 t-83.5 111.5z" />
<glyph unicode="&#xac;" horiz-adv-x="1024" d="M61 662v118h891v-559h-118v441h-773z" />
<glyph unicode="&#xad;" horiz-adv-x="475" d="M68 451l16 108h328l-17 -108h-327z" />
<glyph unicode="&#xae;" horiz-adv-x="1024" d="M133 963q0 115 61.5 212t167 153t230.5 56q191 0 327 -123.5t136 -297.5t-136 -298t-327 -124q-124 0 -229.5 56.5t-167.5 154t-62 211.5zM207 965q0 -151 113 -256t274 -105t274 105t113 256q0 149 -113 252.5t-274 103.5t-274 -103.5t-113 -252.5zM412 1219 q38 -9 100 -9h90q76 0 117 -41t41 -100q0 -88 -72 -123q64 -108 87.5 -139t60.5 -57l-41 -21q-12 -4 -41 -4q-11 0 -25 12t-24 31l-93 150q-42 -7 -69 -7h-35v-102q0 -57 10 -80h-104q12 21 12 80v313q0 51 -14 97zM508 973q80 0 115 10q26 8 40.5 33.5t14.5 48.5t-7.5 38.5 t-18 24t-29 13t-33.5 5.5t-39 1h-43v-174z" />
<glyph unicode="&#xaf;" horiz-adv-x="1024" d="M375 1190l12 98h498l-13 -98h-497z" />
<glyph unicode="&#xb0;" horiz-adv-x="917" d="M248 999q0 124 86.5 202.5t200.5 78.5q111 0 195.5 -80.5t84.5 -204.5q0 -115 -82 -198.5t-198 -83.5q-113 0 -200 80.5t-87 205.5zM315 997q0 -88 62.5 -152.5t154.5 -64.5q83 0 149.5 62t66.5 155q0 88 -63.5 152.5t-154.5 64.5q-94 0 -154.5 -67t-60.5 -150z" />
<glyph unicode="&#xb1;" horiz-adv-x="1024" d="M61 -16v118h922v-118h-922zM61 559v119h402v371h119v-371h401v-119h-401v-366h-119v366h-402z" />
<glyph unicode="&#xb2;" horiz-adv-x="583" d="M100 854q226 219 332.5 351.5t106.5 213.5q0 35 -14.5 61t-37 39t-44 19t-42.5 6q-85 0 -155 -76q-51 39 -51 62q0 33 71.5 66.5t155.5 33.5q99 0 161 -53t62 -131q0 -102 -78.5 -211.5t-261.5 -292.5q70 -4 125 -4q52 0 88.5 3.5t51.5 6.5t53 13l-39 -64 q-18 -29 -44.5 -36t-95.5 -7q-20 0 -123 2t-120 2q-56 0 -101 -4z" />
<glyph unicode="&#xb3;" horiz-adv-x="583" d="M145 999q28 -23 45.5 -34t52.5 -22t79 -11q99 0 147.5 51.5t48.5 114.5q0 39 -16.5 70.5t-36.5 50t-57.5 36t-56.5 24t-58 17.5q33 9 48 13.5t46.5 14.5t48 18.5t39.5 22t34.5 27.5t20.5 33t9 41q0 26 -12 43.5t-32 24t-32 8.5t-25 2q-87 0 -151 -59l-27 33 q-12 12 -12 28q0 34 70 59t139 25q76 0 131 -38t55 -107q0 -36 -11 -65t-34 -53.5t-39.5 -38t-46.5 -34.5q24 -16 37 -27t33.5 -34t30.5 -56t10 -75q0 -111 -81.5 -183.5t-215.5 -72.5q-23 0 -47.5 2.5t-54 9t-49 21.5t-21.5 36z" />
<glyph unicode="&#xb4;" horiz-adv-x="1024" d="M537 1133l147 229h180l-202 -229h-125z" />
<glyph unicode="&#xb5;" horiz-adv-x="1024" d="M2 -383l209 1337h119l-92 -581q-5 -45 -5 -51q0 -110 59 -173t167 -63q132 0 229.5 105t118.5 247l82 516h119l-150 -954h-119l25 154q-131 -172 -338 -172q-157 0 -231 114l-74 -479h-119z" />
<glyph unicode="&#xb6;" horiz-adv-x="1099" d="M139 905q0 115 41.5 205t114.5 145t167 83t204 28h446l-272 -1749h-119l258 1647h-246l-258 -1647h-115l148 950q-90 0 -162.5 30.5t-116.5 80t-67 108t-23 119.5z" />
<glyph unicode="&#xb7;" horiz-adv-x="475" d="M172 578q0 35 25 62.5t65 27.5q39 0 58.5 -21.5t19.5 -56.5q0 -40 -26 -65t-62 -25q-30 0 -55 18.5t-25 59.5z" />
<glyph unicode="&#xb8;" horiz-adv-x="1024" d="M285 -227l4 43q40 -47 123 -47q73 0 73 45q0 17 -9.5 29t-28.5 18t-32 8t-36 4l29 143l88 -6l-21 -104q107 -7 107 -90q0 -10 -2 -21.5t-11.5 -29.5t-25 -31.5t-47.5 -24t-74 -10.5q-92 0 -127 35q-13 13 -10 39z" />
<glyph unicode="&#xb9;" horiz-adv-x="583" d="M287 858q12 18 17 27.5t12.5 34t13.5 61.5l82 510q6 54 6 70q0 14 -8 47l125 26l-117 -739q-4 -24 -13 -30.5t-24 -6.5h-94z" />
<glyph unicode="&#xba;" horiz-adv-x="716" d="M143 903q0 179 92 278t236 99q55 0 97 -14t66.5 -35.5t39 -52t19.5 -58t5 -59.5q0 -66 -20 -130.5t-58 -120t-102 -90t-143 -34.5q-56 0 -99.5 17t-67.5 41.5t-39.5 56t-20.5 56t-5 46.5zM246 905q0 -19 7 -41t21.5 -44t42 -37t62.5 -15q48 0 86.5 20.5t62.5 52.5 t40.5 73t23 79t6.5 74q0 57 -31.5 95t-97.5 38q-100 0 -161.5 -79.5t-61.5 -215.5z" />
<glyph unicode="&#xbb;" horiz-adv-x="768" d="M82 193q69 194 186 321q-73 167 -114 311h75q67 -144 101 -199.5t84 -111.5q-31 -28 -49 -45t-55 -57.5t-75.5 -95t-78.5 -123.5h-74zM338 193q68 190 188 321q-70 149 -116 311h75q67 -144 100 -199.5t85 -111.5q-29 -26 -48.5 -45t-56 -58.5t-75 -94.5t-78.5 -123h-74z " />
<glyph unicode="&#xbc;" horiz-adv-x="1187" d="M72 0l753 1366h95l-754 -1366h-94zM154 612q12 18 17 27.5t12.5 34t13.5 61.5l82 510q6 54 6 70q0 9 -9 47l125 27l-116 -740q-4 -24 -13 -30.5t-24 -6.5h-94zM496 176l503 596h76l-82 -514q41 0 92 10l-22 -59q-19 -41 -80 -33l-33 -188q-3 -25 -9.5 -34.5t-29.5 -16.5 l-88 -21q5 14 14 33.5t13 31.5t6 23l29 172h-389zM670 258h233l64 358z" />
<glyph unicode="&#xbd;" horiz-adv-x="1224" d="M72 0l753 1366h95l-754 -1366h-94zM154 612q12 18 17 27.5t12.5 34t13.5 61.5l82 510q6 54 6 70q0 9 -9 47l125 27l-116 -740q-4 -24 -13 -30.5t-24 -6.5h-94zM608 -4q226 219 332.5 351.5t106.5 213.5q0 35 -14.5 61t-37 39t-44 19t-42.5 6q-85 0 -155 -76 q-52 39 -52 62q0 32 72 66t156 34q99 0 161 -53t62 -131q0 -102 -78.5 -211.5t-261.5 -292.5q70 -4 125 -4q52 0 88 3t52.5 6.5t51.5 12.5l-38 -63q-18 -29 -44.5 -36t-95.5 -7q-20 0 -123 2t-120 2q-56 0 -101 -4z" />
<glyph unicode="&#xbe;" horiz-adv-x="1374" d="M115 754q29 -24 45 -35t51.5 -22t79.5 -11q99 0 147.5 51.5t48.5 114.5q0 39 -16.5 70.5t-36.5 50.5t-57 36.5t-57 24t-58 17.5q33 9 48 13.5t46.5 14.5t48 18.5t39.5 22t34.5 27.5t20.5 33t9 41q0 77 -100 77q-88 0 -152 -59l-27 33q-12 12 -12 28q0 34 70 59t139 25 q76 0 131 -38t55 -107q0 -35 -10.5 -64.5t-34 -54t-39.5 -37t-47 -34.5q23 -16 36.5 -27t34 -34.5t30.5 -56.5t10 -75q0 -111 -81.5 -183.5t-215.5 -72.5q-23 0 -47.5 2.5t-54 9.5t-49 22t-21.5 36zM272 0l754 1366h94l-753 -1366h-95zM682 176l504 596h76l-82 -514 q41 0 92 10l-23 -59q-19 -41 -80 -33l-32 -188q-3 -25 -9.5 -34.5t-29.5 -16.5l-88 -21q5 12 11 27t9.5 23.5t7 18.5t4.5 19l29 172h-389zM856 258h234l63 358z" />
<glyph unicode="&#xbf;" horiz-adv-x="731" d="M2 -186q0 40 11 76.5t26 65t52.5 70.5t68 71.5t94.5 90.5q45 42 74 89.5t41.5 99t16 90t3.5 92.5l53 -35q41 -24 41 -86q0 -186 -172 -350q-110 -108 -144 -154t-34 -106t42 -103.5t116 -43.5q106 0 172 86l22 -33q23 -40 23 -60q0 -42 -65 -73t-152 -31 q-126 0 -207.5 65.5t-81.5 178.5zM385 879q0 39 25.5 65.5t62.5 26.5q28 0 54 -18t26 -60q0 -35 -25 -62.5t-65 -27.5q-41 0 -59.5 22t-18.5 54z" />
<glyph unicode="&#xc0;" horiz-adv-x="1277" d="M-86 84q49 16 85.5 39t84 74.5t102.5 146t123 238.5q102 216 158.5 317t128.5 193q40 49 79 84.5t61 50t57 33.5q-151 -7 -181 -7q-132 0 -196.5 8t-79.5 19.5t-21 36.5l-20 92q33 -13 52 -19t64.5 -14t112.5 -14q167 -14 408 -14h141q31 -3 41.5 -19.5t18.5 -64.5 q30 -240 30 -486q0 -169 -14 -408t-14 -280q0 -40 4 -90h-197q13 25 18.5 36t13 37.5t13.5 63.5q32 166 39 398q-152 4 -305 4q-161 0 -301 -4q-101 -217 -169.5 -329t-133.5 -173q-36 -33 -68 -33q-12 0 -33 11t-28 18zM469 641q82 -4 283 -4q198 0 282 4q4 98 4 178 q0 96 -5.5 213.5t-10.5 153.5q-6 41 -17.5 54t-41.5 13q-44 0 -90 -29t-119 -112q-156 -180 -285 -471zM651 1733h187l151 -236h-129z" />
<glyph unicode="&#xc1;" horiz-adv-x="1277" d="M-86 84q49 16 85.5 39t84 74.5t102.5 146t123 238.5q102 216 158.5 317t128.5 193q40 49 79 84.5t61 50t57 33.5q-151 -7 -181 -7q-132 0 -196.5 8t-79.5 19.5t-21 36.5l-20 92q33 -13 52 -19t64.5 -14t112.5 -14q167 -14 408 -14h141q31 -3 41.5 -19.5t18.5 -64.5 q30 -240 30 -486q0 -169 -14 -408t-14 -280q0 -40 4 -90h-197q13 25 18.5 36t13 37.5t13.5 63.5q32 166 39 398q-152 4 -305 4q-161 0 -301 -4q-101 -217 -169.5 -329t-133.5 -173q-36 -33 -68 -33q-12 0 -33 11t-28 18zM469 641q82 -4 283 -4q198 0 282 4q4 98 4 178 q0 96 -5.5 213.5t-10.5 153.5q-6 41 -17.5 54t-41.5 13q-44 0 -90 -29t-119 -112q-156 -180 -285 -471zM840 1497l153 236h185l-209 -236h-129z" />
<glyph unicode="&#xc2;" horiz-adv-x="1277" d="M-86 84q49 16 85.5 39t84 74.5t102.5 146t123 238.5q102 216 158.5 317t128.5 193q40 49 79 84.5t61 50t57 33.5q-151 -7 -181 -7q-132 0 -196.5 8t-79.5 19.5t-21 36.5l-20 92q33 -13 52 -19t64.5 -14t112.5 -14q167 -14 408 -14h141q31 -3 41.5 -19.5t18.5 -64.5 q30 -240 30 -486q0 -169 -14 -408t-14 -280q0 -40 4 -90h-197q13 25 18.5 36t13 37.5t13.5 63.5q32 166 39 398q-152 4 -305 4q-161 0 -301 -4q-101 -217 -169.5 -329t-133.5 -173q-36 -33 -68 -33q-12 0 -33 11t-28 18zM469 641q82 -4 283 -4q198 0 282 4q4 98 4 178 q0 96 -5.5 213.5t-10.5 153.5q-6 41 -17.5 54t-41.5 13q-44 0 -90 -29t-119 -112q-156 -180 -285 -471zM702 1511l289 207h115l121 -207h-131l-68 111l-133 -111h-193z" />
<glyph unicode="&#xc3;" horiz-adv-x="1277" d="M-86 84q49 16 85.5 39t84 74.5t102.5 146t123 238.5q102 216 158.5 317t128.5 193q40 49 79 84.5t61 50t57 33.5q-151 -7 -181 -7q-132 0 -196.5 8t-79.5 19.5t-21 36.5l-20 92q33 -13 52 -19t64.5 -14t112.5 -14q167 -14 408 -14h141q31 -3 41.5 -19.5t18.5 -64.5 q30 -240 30 -486q0 -169 -14 -408t-14 -280q0 -40 4 -90h-197q13 25 18.5 36t13 37.5t13.5 63.5q32 166 39 398q-152 4 -305 4q-161 0 -301 -4q-101 -217 -169.5 -329t-133.5 -173q-36 -33 -68 -33q-12 0 -33 11t-28 18zM469 641q82 -4 283 -4q198 0 282 4q4 98 4 178 q0 96 -5.5 213.5t-10.5 153.5q-6 41 -17.5 54t-41.5 13q-44 0 -90 -29t-119 -112q-156 -180 -285 -471zM557 1589q92 105 191 105q42 0 135 -27q13 -3 38.5 -10t33.5 -9t23 -5t25 -4t23 -1q31 0 57 11t38.5 22t27.5 29l53 -47q-24 -27 -39 -42t-42 -37.5t-56 -33t-61 -10.5 q-55 0 -148 29q-76 23 -99 28.5t-50 5.5t-45 -9.5t-58 -41.5z" />
<glyph unicode="&#xc4;" horiz-adv-x="1277" d="M-86 84q49 16 85.5 39t84 74.5t102.5 146t123 238.5q102 216 158.5 317t128.5 193q40 49 79 84.5t61 50t57 33.5q-151 -7 -181 -7q-132 0 -196.5 8t-79.5 19.5t-21 36.5l-20 92q33 -13 52 -19t64.5 -14t112.5 -14q167 -14 408 -14h141q31 -3 41.5 -19.5t18.5 -64.5 q30 -240 30 -486q0 -169 -14 -408t-14 -280q0 -40 4 -90h-197q13 25 18.5 36t13 37.5t13.5 63.5q32 166 39 398q-152 4 -305 4q-161 0 -301 -4q-101 -217 -169.5 -329t-133.5 -173q-36 -33 -68 -33q-12 0 -33 11t-28 18zM469 641q82 -4 283 -4q198 0 282 4q4 98 4 178 q0 96 -5.5 213.5t-10.5 153.5q-6 41 -17.5 54t-41.5 13q-44 0 -90 -29t-119 -112q-156 -180 -285 -471zM635 1606q0 49 30.5 77.5t65.5 28.5q30 0 50.5 -10.5t29 -27.5t11.5 -29t3 -23q0 -40 -26 -72t-76 -32q-44 0 -66 26t-22 62zM950 1606q0 48 30.5 77t66.5 29 q31 0 51.5 -10.5t29 -27.5t11 -29t2.5 -23q0 -40 -26 -72t-77 -32q-45 0 -66.5 26.5t-21.5 61.5z" />
<glyph unicode="&#xc5;" horiz-adv-x="1277" d="M-86 84q49 16 85.5 39t84 74.5t102.5 146t123 238.5q102 216 158.5 317t128.5 193q40 49 79 84.5t61 50t57 33.5q-151 -7 -181 -7q-132 0 -196.5 8t-79.5 19.5t-21 36.5l-20 92q33 -13 52 -19t64.5 -14t112.5 -14q167 -14 408 -14h141q31 -3 41.5 -19.5t18.5 -64.5 q30 -240 30 -486q0 -169 -14 -408t-14 -280q0 -40 4 -90h-197q13 25 18.5 36t13 37.5t13.5 63.5q32 166 39 398q-152 4 -305 4q-161 0 -301 -4q-101 -217 -169.5 -329t-133.5 -173q-36 -33 -68 -33q-12 0 -33 11t-28 18zM469 641q82 -4 283 -4q198 0 282 4q4 98 4 178 q0 96 -5.5 213.5t-10.5 153.5q-6 41 -17.5 54t-41.5 13q-44 0 -90 -29t-119 -112q-156 -180 -285 -471zM754 1602q0 82 55.5 129t122.5 47q79 0 115 -44.5t36 -105.5q0 -75 -50 -126.5t-128 -51.5q-63 0 -107 40.5t-44 111.5zM844 1608q0 -13 4.5 -27t20.5 -27.5t42 -13.5 q38 0 60 26.5t22 57.5q0 64 -69 64q-34 0 -57 -24t-23 -56z" />
<glyph unicode="&#xc6;" horiz-adv-x="1533" d="M-104 84q58 15 111.5 58t104 117t89 145t90.5 180q113 240 179 354.5t128 180t170 138.5q-94 -6 -143 -6q-191 0 -263 13q-36 7 -48 19t-17 36l-21 86q63 -20 107.5 -29t157.5 -17.5t288 -8.5q44 0 277.5 8t271.5 8q167 0 183 -4q6 0 12.5 -3t12.5 -14.5t3 -29.5l-12 -84 q-82 33 -211 33q-80 0 -217 -13l-76 -471h182q99 0 156 17l-20 -135q-57 20 -140 20h-192l-92 -578q99 -6 194 -6q97 0 160 4.5t85 9t60 15.5l-30 -66q-21 -43 -49 -52t-119 -9q-25 0 -153.5 2t-149.5 2q-104 0 -174 -4q13 20 21 37t20.5 63.5t23.5 116.5l51 318 q-84 4 -245 4q-189 0 -263 -4q-65 -134 -88 -183q-22 -45 -53 -98t-71.5 -113.5t-82.5 -100.5t-71 -40q-31 0 -60 23zM453 643q55 -4 174 -4q201 0 297 4l86 541q6 18 6 39q0 30 -58 30q-27 0 -46.5 -4t-67.5 -36t-105 -93q-149 -158 -286 -477z" />
<glyph unicode="&#xc7;" horiz-adv-x="1241" d="M137 612q0 107 22 210.5t75 206t131.5 179.5t201.5 124.5t275 47.5q206 0 319 -78.5t113 -195.5q0 -100 -67.5 -166t-166.5 -66q-47 0 -68.5 20t-15.5 58l9 43q24 -12 53 -12q57 0 91 36.5t34 84.5q0 69 -85 118.5t-218 49.5q-261 0 -413.5 -175.5t-152.5 -469.5 q0 -117 27 -214t79.5 -169.5t136.5 -113t192 -40.5q77 0 148 15t130.5 43t89 45.5t70.5 44.5l-10 -56q-8 -50 -22 -72t-58 -44q-75 -37 -153 -56.5t-120.5 -22.5t-99.5 -3l-14 -99q110 -7 110 -94q0 -9 -1.5 -20t-11 -31t-25.5 -34.5t-49.5 -26t-78.5 -11.5q-101 0 -133 37 q-15 15 -10 43l4 43q39 -49 127 -49q78 0 78 47q0 18 -10.5 30t-32 18.5t-34 8.5t-36.5 4l27 140q-51 7 -87.5 15.5t-96 41t-107.5 84.5q-166 186 -166 481z" />
<glyph unicode="&#xc8;" horiz-adv-x="802" d="M63 0q15 24 22 38.5t20 62t24 116.5l145 918q21 143 21 163q0 37 -14 68q105 -6 180 -6q23 0 145 3t142 3q85 0 102.5 -8.5t11.5 -48.5l-12 -78q-100 33 -227 33q-62 0 -201 -11l-76 -473h191q76 0 147 17l-20 -133q-42 18 -134 18h-198l-92 -578q135 -6 202 -6 q85 0 141.5 4t82.5 9t69 16l-30 -70q-18 -37 -40.5 -47t-78.5 -10q-29 0 -186.5 2t-182.5 2q-50 0 -154 -4zM338 1733h186l152 -236h-129z" />
<glyph unicode="&#xc9;" horiz-adv-x="802" d="M63 0q15 24 22 38.5t20 62t24 116.5l145 918q21 143 21 163q0 37 -14 68q105 -6 180 -6q23 0 145 3t142 3q85 0 102.5 -8.5t11.5 -48.5l-12 -78q-100 33 -227 33q-62 0 -201 -11l-76 -473h191q76 0 147 17l-20 -133q-42 18 -134 18h-198l-92 -578q135 -6 202 -6 q85 0 141.5 4t82.5 9t69 16l-30 -70q-18 -37 -40.5 -47t-78.5 -10q-29 0 -186.5 2t-182.5 2q-50 0 -154 -4zM492 1497l153 236h184l-208 -236h-129z" />
<glyph unicode="&#xca;" horiz-adv-x="802" d="M63 0q15 24 22 38.5t20 62t24 116.5l145 918q21 143 21 163q0 37 -14 68q105 -6 180 -6q23 0 145 3t142 3q85 0 102.5 -8.5t11.5 -48.5l-12 -78q-100 33 -227 33q-62 0 -201 -11l-76 -473h191q76 0 147 17l-20 -133q-42 18 -134 18h-198l-92 -578q135 -6 202 -6 q85 0 141.5 4t82.5 9t69 16l-30 -70q-18 -37 -40.5 -47t-78.5 -10q-29 0 -186.5 2t-182.5 2q-50 0 -154 -4zM369 1511l288 207h115l121 -207h-131l-68 111l-133 -111h-192z" />
<glyph unicode="&#xcb;" horiz-adv-x="802" d="M63 0q15 24 22 38.5t20 62t24 116.5l145 918q21 143 21 163q0 37 -14 68q105 -6 180 -6q23 0 145 3t142 3q85 0 102.5 -8.5t11.5 -48.5l-12 -78q-100 33 -227 33q-62 0 -201 -11l-76 -473h191q76 0 147 17l-20 -133q-42 18 -134 18h-198l-92 -578q135 -6 202 -6 q85 0 141.5 4t82.5 9t69 16l-30 -70q-18 -37 -40.5 -47t-78.5 -10q-29 0 -186.5 2t-182.5 2q-50 0 -154 -4zM326 1606q0 49 30.5 77.5t65.5 28.5q30 0 50.5 -10.5t29 -27.5t11.5 -29t3 -23q0 -40 -26 -72t-76 -32q-44 0 -66 26t-22 62zM641 1606q0 48 30 77t66 29 q31 0 51.5 -10.5t29 -27.5t11 -29t2.5 -23q0 -40 -25.5 -72t-76.5 -32q-45 0 -66.5 26.5t-21.5 61.5z" />
<glyph unicode="&#xcc;" horiz-adv-x="475" d="M63 0q14 21 22 37t20.5 63t23.5 117l145 918q21 139 21 165q0 38 -14 66h188q-15 -28 -23 -46t-19.5 -63t-20.5 -110l-146 -918q-20 -123 -20 -159q0 -38 14 -70h-191zM178 1733h187l151 -236h-129z" />
<glyph unicode="&#xcd;" horiz-adv-x="475" d="M63 0q14 21 22 37t20.5 63t23.5 117l145 918q21 139 21 165q0 38 -14 66h188q-15 -28 -23 -46t-19.5 -63t-20.5 -110l-146 -918q-20 -123 -20 -159q0 -38 14 -70h-191zM315 1497l154 236h184l-209 -236h-129z" />
<glyph unicode="&#xce;" horiz-adv-x="475" d="M63 0q14 21 22 37t20.5 63t23.5 117l145 918q21 139 21 165q0 38 -14 66h188q-15 -28 -23 -46t-19.5 -63t-20.5 -110l-146 -918q-20 -123 -20 -159q0 -38 14 -70h-191zM135 1511l289 207h115l120 -207h-131l-67 111l-133 -111h-193z" />
<glyph unicode="&#xcf;" horiz-adv-x="475" d="M63 0q14 21 22 37t20.5 63t23.5 117l145 918q21 139 21 165q0 38 -14 66h188q-15 -28 -23 -46t-19.5 -63t-20.5 -110l-146 -918q-20 -123 -20 -159q0 -38 14 -70h-191zM186 1604q0 49 27.5 78.5t60.5 29.5q27 0 45.5 -10.5t26 -27t10 -28t2.5 -22.5q0 -42 -24 -74 t-70 -32q-39 0 -58.5 25t-19.5 61zM471 1604q0 48 28 78t60 30q27 0 45.5 -10.5t26 -27t10 -28t2.5 -22.5q0 -41 -24 -73.5t-70 -32.5q-40 0 -59 26.5t-19 59.5z" />
<glyph unicode="&#xd0;" horiz-adv-x="1314" d="M57 655l17 109h145l45 283q17 116 17 124q0 97 -103 97q-30 0 -59 -11l37 68q8 17 15.5 26.5t24.5 17t42 7.5q36 0 63 -10t45 -31.5t26.5 -36t20.5 -41.5q30 23 53.5 38.5t69 38t104.5 34.5t128 12q230 0 366.5 -145t136.5 -410q0 -169 -57 -329.5t-160 -278.5 q-61 -70 -126 -115.5t-133 -66.5t-124 -28t-127 -7q-24 0 -153 2t-150 2q-87 0 -153 -4q13 22 20 37.5t20 63t25 116.5l70 438h-146zM246 115q127 -13 209 -13q139 0 229.5 22t161.5 79q125 100 197.5 270.5t72.5 355.5q0 232 -110 342q-53 51 -130.5 77t-156.5 26 q-53 0 -100.5 -11.5t-77.5 -25t-61.5 -38t-42.5 -36t-31 -33.5l-58 -366h299l-18 -109h-297z" />
<glyph unicode="&#xd1;" horiz-adv-x="1351" d="M68 0q21 34 36 79.5t29 137.5l154 977q-67 109 -133 172h168l710 -1141l129 910q19 143 19 163q0 33 -13 68h181q-15 -26 -23 -44.5t-20 -63.5t-23 -111l-182 -1147h-58l-669 1077l-119 -848q-21 -144 -21 -159q0 -35 13 -70h-178zM485 1589q92 105 191 105q42 0 135 -27 q13 -3 38.5 -10t33.5 -9t23 -5t25 -4t23 -1q31 0 57 11t38.5 22t27.5 29l53 -47q-24 -27 -39 -42t-42 -37.5t-56 -33t-61 -10.5q-55 0 -148 29q-76 23 -99 28.5t-50 5.5t-45 -9.5t-58 -41.5z" />
<glyph unicode="&#xd2;" horiz-adv-x="1241" d="M119 526q0 50 4 102.5t19.5 133t40.5 154t72 157.5t110 152q50 54 104.5 88t111 47t92.5 16.5t87 3.5q86 0 159.5 -28t134 -86.5t95.5 -160t35 -237.5q0 -75 -9.5 -154.5t-32 -167t-55.5 -167.5t-84.5 -153t-114 -127t-148.5 -85.5t-185 -31.5q-77 0 -140.5 18.5 t-107.5 49.5t-78 75t-54.5 91t-33.5 103t-17.5 105t-4.5 102zM254 520q0 -217 77 -323.5t236 -106.5q80 0 148 30.5t116.5 80.5t87 117.5t62 139t39 148t21.5 141t6 121.5q0 184 -64 285q-37 60 -102.5 89.5t-122.5 29.5q-42 0 -76.5 -5t-78 -19t-85 -46t-78.5 -80 q-57 -74 -96.5 -162t-57.5 -171.5t-25 -146.5t-7 -122zM575 1733h187l151 -236h-129z" />
<glyph unicode="&#xd3;" horiz-adv-x="1241" d="M119 526q0 50 4 102.5t19.5 133t40.5 154t72 157.5t110 152q50 54 104.5 88t111 47t92.5 16.5t87 3.5q86 0 159.5 -28t134 -86.5t95.5 -160t35 -237.5q0 -75 -9.5 -154.5t-32 -167t-55.5 -167.5t-84.5 -153t-114 -127t-148.5 -85.5t-185 -31.5q-77 0 -140.5 18.5 t-107.5 49.5t-78 75t-54.5 91t-33.5 103t-17.5 105t-4.5 102zM254 520q0 -217 77 -323.5t236 -106.5q80 0 148 30.5t116.5 80.5t87 117.5t62 139t39 148t21.5 141t6 121.5q0 184 -64 285q-37 60 -102.5 89.5t-122.5 29.5q-42 0 -76.5 -5t-78 -19t-85 -46t-78.5 -80 q-57 -74 -96.5 -162t-57.5 -171.5t-25 -146.5t-7 -122zM684 1497l154 236h184l-209 -236h-129z" />
<glyph unicode="&#xd4;" horiz-adv-x="1241" d="M119 526q0 50 4 102.5t19.5 133t40.5 154t72 157.5t110 152q50 54 104.5 88t111 47t92.5 16.5t87 3.5q86 0 159.5 -28t134 -86.5t95.5 -160t35 -237.5q0 -75 -9.5 -154.5t-32 -167t-55.5 -167.5t-84.5 -153t-114 -127t-148.5 -85.5t-185 -31.5q-77 0 -140.5 18.5 t-107.5 49.5t-78 75t-54.5 91t-33.5 103t-17.5 105t-4.5 102zM254 520q0 -217 77 -323.5t236 -106.5q80 0 148 30.5t116.5 80.5t87 117.5t62 139t39 148t21.5 141t6 121.5q0 184 -64 285q-37 60 -102.5 89.5t-122.5 29.5q-42 0 -76.5 -5t-78 -19t-85 -46t-78.5 -80 q-57 -74 -96.5 -162t-57.5 -171.5t-25 -146.5t-7 -122zM481 1511l289 207h115l121 -207h-132l-67 111l-133 -111h-193z" />
<glyph unicode="&#xd5;" horiz-adv-x="1241" d="M119 526q0 50 4 102.5t19.5 133t40.5 154t72 157.5t110 152q50 54 104.5 88t111 47t92.5 16.5t87 3.5q86 0 159.5 -28t134 -86.5t95.5 -160t35 -237.5q0 -75 -9.5 -154.5t-32 -167t-55.5 -167.5t-84.5 -153t-114 -127t-148.5 -85.5t-185 -31.5q-77 0 -140.5 18.5 t-107.5 49.5t-78 75t-54.5 91t-33.5 103t-17.5 105t-4.5 102zM254 520q0 -217 77 -323.5t236 -106.5q80 0 148 30.5t116.5 80.5t87 117.5t62 139t39 148t21.5 141t6 121.5q0 184 -64 285q-37 60 -102.5 89.5t-122.5 29.5q-42 0 -76.5 -5t-78 -19t-85 -46t-78.5 -80 q-57 -74 -96.5 -162t-57.5 -171.5t-25 -146.5t-7 -122zM477 1589q92 105 191 105q42 0 135 -27q13 -3 38.5 -10t33.5 -9t23 -5t25 -4t23 -1q31 0 57 11t38.5 22t27.5 29l53 -47q-24 -27 -39 -42t-42 -37.5t-56 -33t-61 -10.5q-55 0 -148 29q-76 23 -99 28.5t-50 5.5 t-45 -9.5t-58 -41.5z" />
<glyph unicode="&#xd6;" horiz-adv-x="1241" d="M119 526q0 50 4 102.5t19.5 133t40.5 154t72 157.5t110 152q50 54 104.5 88t111 47t92.5 16.5t87 3.5q86 0 159.5 -28t134 -86.5t95.5 -160t35 -237.5q0 -75 -9.5 -154.5t-32 -167t-55.5 -167.5t-84.5 -153t-114 -127t-148.5 -85.5t-185 -31.5q-77 0 -140.5 18.5 t-107.5 49.5t-78 75t-54.5 91t-33.5 103t-17.5 105t-4.5 102zM254 520q0 -217 77 -323.5t236 -106.5q80 0 148 30.5t116.5 80.5t87 117.5t62 139t39 148t21.5 141t6 121.5q0 184 -64 285q-37 60 -102.5 89.5t-122.5 29.5q-42 0 -76.5 -5t-78 -19t-85 -46t-78.5 -80 q-57 -74 -96.5 -162t-57.5 -171.5t-25 -146.5t-7 -122zM545 1606q0 49 30.5 77.5t65.5 28.5q30 0 50.5 -10.5t29 -27.5t11.5 -29t3 -23q0 -40 -26 -72t-76 -32q-44 0 -66 26t-22 62zM860 1606q0 48 30 77t66 29q25 0 43.5 -7.5t28 -18t15 -24.5t7 -23t1.5 -17q0 -40 -26 -72 t-77 -32q-45 0 -66.5 26.5t-21.5 61.5z" />
<glyph unicode="&#xd7;" horiz-adv-x="1024" d="M47 127l391 391l-391 391l84 84l389 -393l393 393l84 -84l-393 -391l393 -391l-84 -84l-393 393l-389 -393z" />
<glyph unicode="&#xd8;" horiz-adv-x="1241" d="M2 18l172 193q-57 142 -57 319q0 187 63 373.5t185 321.5q137 155 370 155q72 0 127.5 -11.5t95.5 -35t64 -43.5t53 -53l135 152l78 -70l-158 -176q17 -37 26 -63t18.5 -85t9.5 -133q0 -193 -65.5 -394t-192.5 -337q-67 -71 -162.5 -110t-202.5 -39q-132 0 -237 55 q-39 22 -95 78l-145 -168zM252 496q0 -89 20 -168l719 813q-16 24 -29 39t-43 39.5t-76 37.5t-106 13q-96 0 -177 -46t-136.5 -122.5t-95 -177.5t-58 -209.5t-18.5 -218.5zM317 213q13 -21 26 -37t41.5 -39t74.5 -36t106 -13q105 0 190 53t137.5 135.5t88 189.5t49.5 208.5 t14 199.5q0 57 -12 156z" />
<glyph unicode="&#xd9;" horiz-adv-x="1277" d="M131 1257l25 56q28 65 106 65q73 0 117 -51q43 -45 43 -135q0 -45 -14 -133l-101 -623q-12 -71 -12 -131q0 -51 14.5 -90.5t37 -62.5t54 -37.5t60 -19.5t59.5 -5q25 0 54 3.5t74 14t95.5 35.5t94.5 62q83 71 106.5 122t42.5 169l100 639q19 143 19 165q0 42 -12 66h188 q-41 -67 -65 -219l-111 -696q-33 -211 -33 -289q0 -70 41 -117l-74 -43q-30 -18 -43 -18q-59 0 -59 116q0 24 4 74q-92 -97 -194 -143q-111 -49 -236 -49q-185 0 -283 102q-63 67 -63 207q0 71 12 141l103 631q12 71 12 108q0 99 -92 99q-31 0 -70 -13zM512 1733h186 l152 -236h-129z" />
<glyph unicode="&#xda;" horiz-adv-x="1277" d="M131 1257l25 56q28 65 106 65q73 0 117 -51q43 -45 43 -135q0 -45 -14 -133l-101 -623q-12 -71 -12 -131q0 -51 14.5 -90.5t37 -62.5t54 -37.5t60 -19.5t59.5 -5q25 0 54 3.5t74 14t95.5 35.5t94.5 62q83 71 106.5 122t42.5 169l100 639q19 143 19 165q0 42 -12 66h188 q-41 -67 -65 -219l-111 -696q-33 -211 -33 -289q0 -70 41 -117l-74 -43q-30 -18 -43 -18q-59 0 -59 116q0 24 4 74q-92 -97 -194 -143q-111 -49 -236 -49q-185 0 -283 102q-63 67 -63 207q0 71 12 141l103 631q12 71 12 108q0 99 -92 99q-31 0 -70 -13zM676 1497l153 236 h185l-209 -236h-129z" />
<glyph unicode="&#xdb;" horiz-adv-x="1277" d="M131 1257l25 56q28 65 106 65q73 0 117 -51q43 -45 43 -135q0 -45 -14 -133l-101 -623q-12 -71 -12 -131q0 -51 14.5 -90.5t37 -62.5t54 -37.5t60 -19.5t59.5 -5q25 0 54 3.5t74 14t95.5 35.5t94.5 62q83 71 106.5 122t42.5 169l100 639q19 143 19 165q0 42 -12 66h188 q-41 -67 -65 -219l-111 -696q-33 -211 -33 -289q0 -70 41 -117l-74 -43q-30 -18 -43 -18q-59 0 -59 116q0 24 4 74q-92 -97 -194 -143q-111 -49 -236 -49q-185 0 -283 102q-63 67 -63 207q0 71 12 141l103 631q12 71 12 108q0 99 -92 99q-31 0 -70 -13zM537 1511l288 207 h115l121 -207h-131l-68 111l-133 -111h-192z" />
<glyph unicode="&#xdc;" horiz-adv-x="1277" d="M131 1257l25 56q28 65 106 65q73 0 117 -51q43 -45 43 -135q0 -45 -14 -133l-101 -623q-12 -71 -12 -131q0 -51 14.5 -90.5t37 -62.5t54 -37.5t60 -19.5t59.5 -5q25 0 54 3.5t74 14t95.5 35.5t94.5 62q83 71 106.5 122t42.5 169l100 639q19 143 19 165q0 42 -12 66h188 q-41 -67 -65 -219l-111 -696q-33 -211 -33 -289q0 -70 41 -117l-74 -43q-30 -18 -43 -18q-59 0 -59 116q0 24 4 74q-92 -97 -194 -143q-111 -49 -236 -49q-185 0 -283 102q-63 67 -63 207q0 71 12 141l103 631q12 71 12 108q0 99 -92 99q-31 0 -70 -13zM522 1606 q0 49 30.5 77.5t65.5 28.5q24 0 42.5 -7.5t28 -18t15.5 -24.5t7.5 -23t1.5 -17q0 -40 -26.5 -72t-76.5 -32q-44 0 -66 26t-22 62zM838 1606q0 48 30 77t66 29q31 0 51.5 -10.5t29 -27.5t11 -29t2.5 -23q0 -40 -25.5 -72t-76.5 -32q-45 0 -66.5 26.5t-21.5 61.5z" />
<glyph unicode="&#xdd;" horiz-adv-x="1095" d="M104 1231l11 63q7 42 30 57t60 15q132 0 262 -178q49 -66 84.5 -133t51.5 -109.5t40 -114.5q95 157 156.5 241t183.5 216q54 55 73 66.5t68 11.5h105q-99 -80 -166.5 -151.5t-175.5 -213.5q-203 -267 -230 -436l-53 -336q-18 -117 -18 -161q0 -41 12 -68h-190 q14 21 21.5 37t20.5 62.5t25 117.5l60 381q8 64 8 80q0 95 -60 232t-141 239q-74 100 -172 100q-25 0 -66 -18zM639 1497l154 236h184l-209 -236h-129z" />
<glyph unicode="&#xde;" horiz-adv-x="987" d="M63 0q13 23 20 37.5t20.5 62.5t25.5 117l145 918q19 125 19 165q0 42 -12 66h188q-22 -39 -36 -83t-30 -136l-10 -74q106 88 254 88t236 -93.5t88 -231.5q0 -58 -15.5 -116.5t-55.5 -120.5t-100.5 -109t-160 -77t-225.5 -30q-62 0 -127 6l-27 -160q-20 -117 -20 -159 q0 -34 12 -70h-189zM303 485h125q92 0 165 22t118.5 57.5t75 83.5t41.5 96t12 100q0 61 -20.5 104.5t-53 65t-64 30.5t-63.5 9q-14 0 -28 -1t-46.5 -9t-61.5 -21.5t-65.5 -43t-66.5 -69.5z" />
<glyph unicode="&#xdf;" horiz-adv-x="1095" d="M63 0q12 19 17 29.5t13 46t18 98.5l163 1032q7 50 22.5 92t43.5 81.5t75.5 62t110.5 22.5q53 0 103 -20t93 -58t69 -103.5t26 -147.5q0 -53 -11.5 -98t-25 -73t-40.5 -56t-42 -39.5t-45 -32.5q28 -9 49 -18.5t53 -28.5t62 -51.5t55 -75.5q60 -96 60 -240 q0 -203 -107.5 -320.5t-271.5 -117.5q-60 0 -121 17t-82 44q-20 28 -16 68l10 63q29 -26 48 -40.5t65 -33t96 -18.5q102 0 180 92.5t78 245.5q0 145 -87 244t-290 141q44 13 70 23.5t65 40.5t68 75q57 96 57 199q0 108 -50.5 163.5t-115.5 55.5q-30 0 -54.5 -15t-38.5 -34 t-26 -49.5t-16.5 -48t-9.5 -43.5l-154 -977q-14 -96 -14 -152q0 -20 4 -45h-156z" />
<glyph unicode="&#xe0;" horiz-adv-x="987" d="M78 319q0 95 21 188t63.5 176.5t101.5 148t140 102t174 37.5q137 0 188 -105q1 1 8 17t14.5 33t8.5 18q8 14 17.5 17t31.5 3h72q-23 -49 -36 -79t-29 -82t-28 -113q-53 -309 -53 -436q0 -51 10.5 -87.5t23.5 -54t36 -27t36 -11t35 -1.5q-5 -20 -9.5 -31.5t-14 -24.5 t-26.5 -19t-42 -6q-15 0 -29 2.5t-37.5 15t-41 34t-32.5 65t-19 102.5q-22 -54 -57.5 -95.5t-70.5 -64t-73.5 -37t-64 -18.5t-44.5 -4q-13 0 -27 1t-43 8.5t-54 19.5t-53.5 37.5t-49 60t-34 89t-13.5 121.5zM203 324q0 -242 149 -242q58 0 121.5 37t112.5 106q51 71 90 225 t39 259q0 71 -39 116t-115 45q-67 0 -131.5 -40.5t-115 -110.5t-81 -173.5t-30.5 -221.5zM414 1362h180l147 -229h-125z" />
<glyph unicode="&#xe1;" horiz-adv-x="987" d="M78 319q0 95 21 188t63.5 176.5t101.5 148t140 102t174 37.5q137 0 188 -105q1 1 8 17t14.5 33t8.5 18q8 14 17.5 17t31.5 3h72q-23 -49 -36 -79t-29 -82t-28 -113q-53 -309 -53 -436q0 -51 10.5 -87.5t23.5 -54t36 -27t36 -11t35 -1.5q-5 -20 -9.5 -31.5t-14 -24.5 t-26.5 -19t-42 -6q-15 0 -29 2.5t-37.5 15t-41 34t-32.5 65t-19 102.5q-22 -54 -57.5 -95.5t-70.5 -64t-73.5 -37t-64 -18.5t-44.5 -4q-13 0 -27 1t-43 8.5t-54 19.5t-53.5 37.5t-49 60t-34 89t-13.5 121.5zM203 324q0 -242 149 -242q58 0 121.5 37t112.5 106q51 71 90 225 t39 259q0 71 -39 116t-115 45q-67 0 -131.5 -40.5t-115 -110.5t-81 -173.5t-30.5 -221.5zM518 1133l148 229h180l-203 -229h-125z" />
<glyph unicode="&#xe2;" horiz-adv-x="987" d="M78 319q0 95 21 188t63.5 176.5t101.5 148t140 102t174 37.5q137 0 188 -105q1 1 8 17t14.5 33t8.5 18q8 14 17.5 17t31.5 3h72q-23 -49 -36 -79t-29 -82t-28 -113q-53 -309 -53 -436q0 -51 10.5 -87.5t23.5 -54t36 -27t36 -11t35 -1.5q-5 -20 -9.5 -31.5t-14 -24.5 t-26.5 -19t-42 -6q-15 0 -29 2.5t-37.5 15t-41 34t-32.5 65t-19 102.5q-22 -54 -57.5 -95.5t-70.5 -64t-73.5 -37t-64 -18.5t-44.5 -4q-13 0 -27 1t-43 8.5t-54 19.5t-53.5 37.5t-49 60t-34 89t-13.5 121.5zM203 324q0 -242 149 -242q58 0 121.5 37t112.5 106q51 71 90 225 t39 259q0 71 -39 116t-115 45q-67 0 -131.5 -40.5t-115 -110.5t-81 -173.5t-30.5 -221.5zM342 1147l281 201h110l119 -201h-129l-66 106l-129 -106h-186z" />
<glyph unicode="&#xe3;" horiz-adv-x="987" d="M78 319q0 95 21 188t63.5 176.5t101.5 148t140 102t174 37.5q137 0 188 -105q1 1 8 17t14.5 33t8.5 18q8 14 17.5 17t31.5 3h72q-23 -49 -36 -79t-29 -82t-28 -113q-53 -309 -53 -436q0 -51 10.5 -87.5t23.5 -54t36 -27t36 -11t35 -1.5q-5 -20 -9.5 -31.5t-14 -24.5 t-26.5 -19t-42 -6q-15 0 -29 2.5t-37.5 15t-41 34t-32.5 65t-19 102.5q-22 -54 -57.5 -95.5t-70.5 -64t-73.5 -37t-64 -18.5t-44.5 -4q-13 0 -27 1t-43 8.5t-54 19.5t-53.5 37.5t-49 60t-34 89t-13.5 121.5zM203 324q0 -242 149 -242q58 0 121.5 37t112.5 106q51 71 90 225 t39 259q0 71 -39 116t-115 45q-67 0 -131.5 -40.5t-115 -110.5t-81 -173.5t-30.5 -221.5zM311 1223q85 100 178 100q38 0 127 -27q96 -26 136 -26q29 0 53.5 10t35.5 20t27 27l50 -43q-32 -36 -51.5 -55.5t-58.5 -40.5t-79 -21q-45 0 -137 27q-104 31 -125 33h-14 q-26 0 -46.5 -11t-52.5 -38z" />
<glyph unicode="&#xe4;" horiz-adv-x="987" d="M78 319q0 95 21 188t63.5 176.5t101.5 148t140 102t174 37.5q137 0 188 -105q1 1 8 17t14.5 33t8.5 18q8 14 17.5 17t31.5 3h72q-23 -49 -36 -79t-29 -82t-28 -113q-53 -309 -53 -436q0 -51 10.5 -87.5t23.5 -54t36 -27t36 -11t35 -1.5q-5 -20 -9.5 -31.5t-14 -24.5 t-26.5 -19t-42 -6q-15 0 -29 2.5t-37.5 15t-41 34t-32.5 65t-19 102.5q-22 -54 -57.5 -95.5t-70.5 -64t-73.5 -37t-64 -18.5t-44.5 -4q-13 0 -27 1t-43 8.5t-54 19.5t-53.5 37.5t-49 60t-34 89t-13.5 121.5zM203 324q0 -242 149 -242q58 0 121.5 37t112.5 106q51 71 90 225 t39 259q0 71 -39 116t-115 45q-67 0 -131.5 -40.5t-115 -110.5t-81 -173.5t-30.5 -221.5zM412 1235q0 48 29 76t63 28q29 0 49.5 -10t28.5 -26t11 -28t3 -24q0 -37 -25 -68.5t-73 -31.5q-43 0 -64.5 25t-21.5 59zM717 1235q0 47 28.5 75.5t63.5 28.5q30 0 50.5 -10.5 t28.5 -27t10.5 -28t2.5 -22.5q0 -37 -24.5 -68.5t-73.5 -31.5q-43 0 -64.5 25.5t-21.5 58.5z" />
<glyph unicode="&#xe5;" horiz-adv-x="987" d="M78 319q0 95 21 188t63.5 176.5t101.5 148t140 102t174 37.5q137 0 188 -105q1 1 8 17t14.5 33t8.5 18q8 14 17.5 17t31.5 3h72q-23 -49 -36 -79t-29 -82t-28 -113q-53 -309 -53 -436q0 -51 10.5 -87.5t23.5 -54t36 -27t36 -11t35 -1.5q-5 -20 -9.5 -31.5t-14 -24.5 t-26.5 -19t-42 -6q-15 0 -29 2.5t-37.5 15t-41 34t-32.5 65t-19 102.5q-22 -54 -57.5 -95.5t-70.5 -64t-73.5 -37t-64 -18.5t-44.5 -4q-13 0 -27 1t-43 8.5t-54 19.5t-53.5 37.5t-49 60t-34 89t-13.5 121.5zM203 324q0 -242 149 -242q58 0 121.5 37t112.5 106q51 71 90 225 t39 259q0 71 -39 116t-115 45q-67 0 -131.5 -40.5t-115 -110.5t-81 -173.5t-30.5 -221.5zM498 1233q0 80 54 126t118 46q76 0 112.5 -41.5t36.5 -103.5q0 -73 -49.5 -124t-124.5 -51q-61 0 -104 39.5t-43 108.5zM586 1239q0 -24 15 -44.5t50 -20.5q38 0 59 25t21 56 q0 62 -67 62q-34 0 -56 -23.5t-22 -54.5z" />
<glyph unicode="&#xe6;" horiz-adv-x="1277" d="M37 215q0 58 17 106.5t42.5 80t60.5 56.5t63.5 37.5t60.5 22.5q106 34 288 29l25 153q0 4 2 24.5t2 31.5q0 32 -22 55.5t-56 35.5t-66.5 17.5t-60.5 5.5q-58 0 -104.5 -14t-68 -28t-52.5 -40l-8 56q-2 14 -2 37q0 21 16.5 37.5t44 26t54.5 15.5t58.5 8t44 2.5t21.5 0.5 q71 0 126 -14t84.5 -31.5t51.5 -45t28.5 -43t12.5 -36.5q147 170 326 170q90 0 144.5 -42.5t54.5 -115.5q0 -15 -3 -35.5t-16.5 -57t-35 -71t-64 -71.5t-98.5 -64.5t-143.5 -46t-194.5 -18.5q-15 -81 -15 -140q0 -102 50 -164.5t155 -62.5q64 0 123.5 33t138.5 108l-10 -67 q-6 -38 -16 -58.5t-33 -40.5q-31 -27 -93 -51t-141 -24q-48 0 -84 9t-64 30.5t-44 39t-41 50.5q-31 -29 -52 -45.5t-57 -39t-79.5 -33.5t-94.5 -11q-111 0 -193.5 64t-82.5 169zM158 227q0 -58 38 -101.5t115 -43.5q52 0 91.5 13t60 30t34.5 44t18 42.5t7 38.5l31 203 q-105 4 -191 -15q-96 -22 -150 -82t-54 -129zM694 541q177 3 291.5 76.5t114.5 168.5q0 43 -24 63.5t-62 20.5t-81.5 -18t-88.5 -55t-85.5 -103.5t-64.5 -152.5z" />
<glyph unicode="&#xe7;" horiz-adv-x="839" d="M78 350q0 83 21.5 170t64 167.5t100 144t136 101.5t165.5 38q59 0 112.5 -17t92.5 -57t39 -96q0 -72 -53 -126t-135 -54q-66 0 -66 41q0 17 16 49q20 -4 39 -4q42 0 63 22t21 51q0 39 -33.5 64.5t-97.5 25.5q-103 0 -189 -82t-131.5 -204t-45.5 -250q0 -26 3.5 -53.5 t15.5 -64.5t32 -64.5t57 -47.5t86 -20q47 0 90 12t81.5 36t64.5 44t61 51l-8 -51q-8 -63 -19.5 -85.5t-58.5 -51.5q-33 -22 -74 -34.5t-64.5 -15t-66.5 -5.5l-14 -78q106 -7 106 -90q0 -10 -2 -21t-11 -29.5t-25 -32t-47.5 -24t-73.5 -10.5q-92 0 -127 35q-13 13 -10 39 l6 43q37 -47 120 -47q74 0 74 45q0 17 -9.5 29t-28.5 18t-32 8t-36 4l20 115q-26 6 -43 12.5t-44.5 21.5t-52 42.5t-44.5 66.5q-45 90 -45 219z" />
<glyph unicode="&#xe8;" horiz-adv-x="802" d="M70 334q0 125 40 243t105.5 204t153.5 138t180 52q104 0 152.5 -50.5t48.5 -111.5q0 -45 -16.5 -92t-58 -96.5t-102 -88t-157 -63.5t-215.5 -25q-13 -60 -13 -127q0 -115 52 -175t141 -60q52 0 102.5 22t82 46.5t79.5 68.5l-8 -55q-7 -51 -18 -70t-44 -43 q-39 -29 -100 -49t-127 -20q-130 0 -204 89t-74 263zM225 539q99 4 179 30t126.5 63.5t70.5 78t24 77.5t-24 59.5t-66 22.5q-19 0 -39.5 -4t-58.5 -23t-71.5 -51.5t-72.5 -98.5t-68 -154zM324 1362h180l147 -229h-125z" />
<glyph unicode="&#xe9;" horiz-adv-x="802" d="M70 334q0 125 40 243t105.5 204t153.5 138t180 52q104 0 152.5 -50.5t48.5 -111.5q0 -45 -16.5 -92t-58 -96.5t-102 -88t-157 -63.5t-215.5 -25q-13 -60 -13 -127q0 -115 52 -175t141 -60q52 0 102.5 22t82 46.5t79.5 68.5l-8 -55q-7 -51 -18 -70t-44 -43 q-39 -29 -100 -49t-127 -20q-130 0 -204 89t-74 263zM225 539q99 4 179 30t126.5 63.5t70.5 78t24 77.5t-24 59.5t-66 22.5q-19 0 -39.5 -4t-58.5 -23t-71.5 -51.5t-72.5 -98.5t-68 -154zM487 1133l148 229h180l-203 -229h-125z" />
<glyph unicode="&#xea;" horiz-adv-x="802" d="M70 334q0 125 40 243t105.5 204t153.5 138t180 52q104 0 152.5 -50.5t48.5 -111.5q0 -45 -16.5 -92t-58 -96.5t-102 -88t-157 -63.5t-215.5 -25q-13 -60 -13 -127q0 -115 52 -175t141 -60q52 0 102.5 22t82 46.5t79.5 68.5l-8 -55q-7 -51 -18 -70t-44 -43 q-39 -29 -100 -49t-127 -20q-130 0 -204 89t-74 263zM225 539q99 4 179 30t126.5 63.5t70.5 78t24 77.5t-24 59.5t-66 22.5q-19 0 -39.5 -4t-58.5 -23t-71.5 -51.5t-72.5 -98.5t-68 -154zM319 1147l281 201h111l118 -201h-129l-65 106l-129 -106h-187z" />
<glyph unicode="&#xeb;" horiz-adv-x="802" d="M70 334q0 125 40 243t105.5 204t153.5 138t180 52q104 0 152.5 -50.5t48.5 -111.5q0 -45 -16.5 -92t-58 -96.5t-102 -88t-157 -63.5t-215.5 -25q-13 -60 -13 -127q0 -115 52 -175t141 -60q52 0 102.5 22t82 46.5t79.5 68.5l-8 -55q-7 -51 -18 -70t-44 -43 q-39 -29 -100 -49t-127 -20q-130 0 -204 89t-74 263zM225 539q99 4 179 30t126.5 63.5t70.5 78t24 77.5t-24 59.5t-66 22.5q-19 0 -39.5 -4t-58.5 -23t-71.5 -51.5t-72.5 -98.5t-68 -154zM276 1235q0 47 29.5 75.5t63.5 28.5q29 0 49.5 -10t28.5 -26t11 -28t3 -24 q0 -36 -25.5 -68t-73.5 -32q-43 0 -64.5 25t-21.5 59zM582 1235q0 47 28.5 75.5t63.5 28.5q30 0 50.5 -10.5t28.5 -27t10.5 -28t2.5 -22.5q0 -37 -24.5 -68.5t-73.5 -31.5q-43 0 -64.5 25.5t-21.5 58.5z" />
<glyph unicode="&#xec;" horiz-adv-x="475" d="M123 147q0 42 22 181l66 424q14 86 14 131q0 18 -6 45l141 33l-106 -670q-10 -72 -10 -113q0 -36 13 -57.5t34 -27.5t47 -8t51 1l-33 -59q-15 -28 -27.5 -36.5t-35.5 -8.5q-78 0 -124 48.5t-46 116.5zM125 1362h180l148 -229h-125z" />
<glyph unicode="&#xed;" horiz-adv-x="475" d="M123 147q0 42 22 181l66 424q14 86 14 131q0 18 -6 45l141 33l-106 -670q-10 -72 -10 -113q0 -36 13 -57.5t34 -27.5t47 -8t51 1l-33 -59q-15 -28 -27.5 -36.5t-35.5 -8.5q-78 0 -124 48.5t-46 116.5zM262 1133l148 229h180l-203 -229h-125z" />
<glyph unicode="&#xee;" horiz-adv-x="475" d="M86 1147l281 201h110l119 -201h-129l-66 106l-129 -106h-186zM123 147q0 42 22 181l66 424q14 86 14 131q0 18 -6 45l141 33l-106 -670q-10 -72 -10 -113q0 -36 13 -57.5t34 -27.5t47 -8t51 1l-33 -59q-15 -28 -27.5 -36.5t-35.5 -8.5q-78 0 -124 48.5t-46 116.5z" />
<glyph unicode="&#xef;" horiz-adv-x="475" d="M123 147q0 42 22 181l66 424q14 86 14 131q0 18 -6 45l141 33l-106 -670q-10 -72 -10 -113q0 -36 13 -57.5t34 -27.5t47 -8t51 1l-33 -59q-15 -28 -27.5 -36.5t-35.5 -8.5q-78 0 -124 48.5t-46 116.5zM135 1235q0 45 26.5 74.5t59.5 29.5q27 0 45 -9.5t25 -25.5 t9.5 -27.5t2.5 -23.5q0 -38 -24 -70t-66 -32q-39 0 -58.5 24.5t-19.5 59.5zM412 1233q0 47 26 76.5t58 29.5q26 0 44.5 -10t25.5 -26t9.5 -27.5t2.5 -22.5q0 -39 -23.5 -70.5t-67.5 -31.5q-39 0 -57 25t-18 57z" />
<glyph unicode="&#xf0;" d="M74 356q0 127 32 238t93 195.5t156.5 133t215.5 48.5q55 0 107 -27t88 -84q-35 218 -109 320l-372 -170l-52 84l357 161q-105 89 -305 117l82 90q205 -14 342 -151l333 151l52 -84l-322 -145q117 -172 117 -465q0 -173 -36.5 -321t-99 -249t-147.5 -157.5t-180 -56.5 q-81 0 -144 22t-101.5 57t-63 84.5t-34 100t-9.5 108.5zM199 348q0 -264 211 -264q139 0 236 149t97 369q0 17 -4 44.5t-17 68t-33 74t-56 57.5t-82 24q-160 0 -256 -141.5t-96 -380.5z" />
<glyph unicode="&#xf1;" horiz-adv-x="987" d="M74 860l30 60q10 22 27 32.5t53 10.5q38 0 66.5 -12.5t43.5 -27t25.5 -39t13 -37.5t5.5 -32q27 31 48 50t60.5 47.5t90.5 43.5t110 15q26 0 49.5 -2.5t54 -12.5t52 -26t36.5 -45.5t15 -69.5q0 -29 -10 -86l-74 -481q-8 -47 -8 -70q0 -28 8.5 -47.5t23 -28.5t34 -14 t40.5 -4.5t43 0.5l-34 -61q-12 -22 -25.5 -31.5t-40.5 -9.5q-26 0 -51 6t-53.5 22.5t-46 54t-17.5 91.5q0 50 8 82l74 471q1 6 3 23t3.5 31.5t1.5 24.5q0 36 -22 58q-24 24 -72 24q-68 0 -137.5 -32t-124.5 -97t-68 -147l-92 -594h-117l111 688q8 72 8 90q0 39 -24 66.5 t-68 27.5q-18 0 -53 -12zM311 1223q85 100 178 100q38 0 127 -27q96 -26 136 -26q29 0 53.5 10t35.5 20t27 27l50 -43q-32 -36 -51.5 -55.5t-58.5 -40.5t-79 -21q-45 0 -137 27q-104 31 -125 33h-14q-26 0 -46.5 -11t-52.5 -38z" />
<glyph unicode="&#xf2;" d="M76 342q0 149 38.5 270.5t104 198.5t150 118.5t180.5 41.5q76 0 134 -23.5t92 -59.5t55 -86.5t28.5 -97.5t7.5 -100q0 -109 -30 -217t-86 -199.5t-147.5 -148.5t-203.5 -57q-77 0 -137 28t-94 69t-56 93t-29 93t-7 77zM201 346q0 -36 4.5 -69.5t18.5 -69.5t35.5 -62.5 t59.5 -43.5t87 -17q73 0 132 38t96 96t62 131t35 139.5t10 125.5q0 125 -42 190.5t-154 65.5q-152 0 -248 -146.5t-96 -377.5zM367 1362h180l147 -229h-125z" />
<glyph unicode="&#xf3;" d="M76 342q0 149 38.5 270.5t104 198.5t150 118.5t180.5 41.5q76 0 134 -23.5t92 -59.5t55 -86.5t28.5 -97.5t7.5 -100q0 -109 -30 -217t-86 -199.5t-147.5 -148.5t-203.5 -57q-77 0 -137 28t-94 69t-56 93t-29 93t-7 77zM201 346q0 -36 4.5 -69.5t18.5 -69.5t35.5 -62.5 t59.5 -43.5t87 -17q73 0 132 38t96 96t62 131t35 139.5t10 125.5q0 125 -42 190.5t-154 65.5q-152 0 -248 -146.5t-96 -377.5zM500 1133l147 229h180l-202 -229h-125z" />
<glyph unicode="&#xf4;" d="M76 342q0 149 38.5 270.5t104 198.5t150 118.5t180.5 41.5q76 0 134 -23.5t92 -59.5t55 -86.5t28.5 -97.5t7.5 -100q0 -109 -30 -217t-86 -199.5t-147.5 -148.5t-203.5 -57q-77 0 -137 28t-94 69t-56 93t-29 93t-7 77zM201 346q0 -36 4.5 -69.5t18.5 -69.5t35.5 -62.5 t59.5 -43.5t87 -17q73 0 132 38t96 96t62 131t35 139.5t10 125.5q0 125 -42 190.5t-154 65.5q-152 0 -248 -146.5t-96 -377.5zM324 1147l280 201h111l119 -201h-129l-66 106l-129 -106h-186z" />
<glyph unicode="&#xf5;" d="M76 342q0 149 38.5 270.5t104 198.5t150 118.5t180.5 41.5q76 0 134 -23.5t92 -59.5t55 -86.5t28.5 -97.5t7.5 -100q0 -109 -30 -217t-86 -199.5t-147.5 -148.5t-203.5 -57q-77 0 -137 28t-94 69t-56 93t-29 93t-7 77zM201 346q0 -36 4.5 -69.5t18.5 -69.5t35.5 -62.5 t59.5 -43.5t87 -17q73 0 132 38t96 96t62 131t35 139.5t10 125.5q0 125 -42 190.5t-154 65.5q-152 0 -248 -146.5t-96 -377.5zM293 1223q85 100 178 100q38 0 127 -27q96 -26 135 -26q29 0 53.5 10t36 20t27.5 27l49 -43q-24 -27 -37.5 -41t-39.5 -35t-53.5 -31t-57.5 -10 q-46 0 -138 27q-104 31 -125 33h-14q-26 0 -45.5 -10.5t-52.5 -38.5z" />
<glyph unicode="&#xf6;" d="M76 342q0 149 38.5 270.5t104 198.5t150 118.5t180.5 41.5q76 0 134 -23.5t92 -59.5t55 -86.5t28.5 -97.5t7.5 -100q0 -109 -30 -217t-86 -199.5t-147.5 -148.5t-203.5 -57q-77 0 -137 28t-94 69t-56 93t-29 93t-7 77zM201 346q0 -36 4.5 -69.5t18.5 -69.5t35.5 -62.5 t59.5 -43.5t87 -17q73 0 132 38t96 96t62 131t35 139.5t10 125.5q0 125 -42 190.5t-154 65.5q-152 0 -248 -146.5t-96 -377.5zM360 1235q0 47 29.5 75.5t63.5 28.5q29 0 49.5 -10t28.5 -26t11 -28t3 -24q0 -36 -25.5 -68t-73.5 -32q-43 0 -64.5 25t-21.5 59zM666 1235 q0 47 28.5 75.5t63.5 28.5q30 0 50.5 -10.5t28.5 -27t10.5 -28t2.5 -22.5q0 -37 -24.5 -68.5t-73.5 -31.5q-43 0 -64.5 25.5t-21.5 58.5z" />
<glyph unicode="&#xf7;" horiz-adv-x="1024" d="M61 459v119h922v-119h-922zM399 129q0 51 36.5 87t86.5 36t86.5 -37t36.5 -86q0 -46 -37 -84.5t-84 -38.5q-51 0 -88 36.5t-37 86.5zM399 907q0 51 36.5 87t86.5 36t86.5 -37t36.5 -86q0 -46 -37 -84.5t-84 -38.5q-51 0 -88 36.5t-37 86.5z" />
<glyph unicode="&#xf8;" d="M-10 -10l135 155q-49 96 -49 232q0 62 12 128t36 133.5t63.5 126.5t90 105.5t120.5 73.5t151 27q141 0 223 -80l117 131l67 -61l-129 -148q39 -89 39 -213q0 -81 -17.5 -165t-55.5 -165.5t-91 -145.5t-131.5 -103t-169.5 -39q-133 0 -221 88l-121 -140zM203 369 q0 -69 10 -119l485 557q-30 33 -59 46q-38 17 -92 17q-69 0 -127.5 -32t-97.5 -83.5t-66.5 -118t-40 -134.5t-12.5 -133zM254 156q49 -72 152 -72q73 0 132.5 38.5t96 96.5t61.5 131.5t35 139t10 122.5q0 60 -6 95z" />
<glyph unicode="&#xf9;" horiz-adv-x="987" d="M119 862l22 58q18 43 66 43q53 0 89 -42.5t36 -117.5q0 -26 -10 -96l-76 -478q-8 -54 -8 -75q0 -39 28.5 -55.5t67.5 -16.5q122 0 221 86q92 82 117 250l53 330q14 86 14 135q0 18 -6 45l141 33l-112 -711q-8 -49 -8 -80q0 -88 96 -88q15 0 55 4l-33 -61q-13 -25 -29 -34 t-44 -9q-78 0 -114 36.5t-46 104.5q-133 -141 -317 -141q-201 0 -201 163q0 38 8 82l76 469q6 54 6 82q0 84 -92 84zM311 1362h181l147 -229h-125z" />
<glyph unicode="&#xfa;" horiz-adv-x="987" d="M119 862l22 58q18 43 66 43q53 0 89 -42.5t36 -117.5q0 -26 -10 -96l-76 -478q-8 -54 -8 -75q0 -39 28.5 -55.5t67.5 -16.5q122 0 221 86q92 82 117 250l53 330q14 86 14 135q0 18 -6 45l141 33l-112 -711q-8 -49 -8 -80q0 -88 96 -88q15 0 55 4l-33 -61q-13 -25 -29 -34 t-44 -9q-78 0 -114 36.5t-46 104.5q-133 -141 -317 -141q-201 0 -201 163q0 38 8 82l76 469q6 54 6 82q0 84 -92 84zM471 1133l147 229h181l-203 -229h-125z" />
<glyph unicode="&#xfb;" horiz-adv-x="987" d="M119 862l22 58q18 43 66 43q53 0 89 -42.5t36 -117.5q0 -26 -10 -96l-76 -478q-8 -54 -8 -75q0 -39 28.5 -55.5t67.5 -16.5q122 0 221 86q92 82 117 250l53 330q14 86 14 135q0 18 -6 45l141 33l-112 -711q-8 -49 -8 -80q0 -88 96 -88q15 0 55 4l-33 -61q-13 -25 -29 -34 t-44 -9q-78 0 -114 36.5t-46 104.5q-133 -141 -317 -141q-201 0 -201 163q0 38 8 82l76 469q6 54 6 82q0 84 -92 84zM342 1147l281 201h110l119 -201h-129l-66 106l-129 -106h-186z" />
<glyph unicode="&#xfc;" horiz-adv-x="987" d="M119 862l22 58q18 43 66 43q53 0 89 -42.5t36 -117.5q0 -26 -10 -96l-76 -478q-8 -54 -8 -75q0 -39 28.5 -55.5t67.5 -16.5q122 0 221 86q92 82 117 250l53 330q14 86 14 135q0 18 -6 45l141 33l-112 -711q-8 -49 -8 -80q0 -88 96 -88q15 0 55 4l-33 -61q-13 -25 -29 -34 t-44 -9q-78 0 -114 36.5t-46 104.5q-133 -141 -317 -141q-201 0 -201 163q0 38 8 82l76 469q6 54 6 82q0 84 -92 84zM389 1235q0 48 29 76t63 28q29 0 49.5 -10t28.5 -26t11 -28t3 -24q0 -37 -25 -68.5t-73 -31.5q-43 0 -64.5 25t-21.5 59zM694 1235q0 47 28.5 75.5 t63.5 28.5q30 0 50.5 -10.5t28.5 -26.5t11 -28t3 -23q0 -37 -25 -68.5t-74 -31.5q-43 0 -64.5 25.5t-21.5 58.5z" />
<glyph unicode="&#xfd;" horiz-adv-x="876" d="M10 -383q130 122 228 309q27 50 39 94t12 109q0 92 -24.5 231.5t-61.5 260.5q-23 72 -45.5 120.5t-44.5 74t-34.5 35t-35.5 21.5l45 60q25 31 59 31q32 0 64 -40.5t57 -106t41 -118.5t29 -108q25 -103 36.5 -199.5t10 -147.5t-1.5 -98q236 509 295 674q17 46 20 77t0 58 h150q-35 -115 -77.5 -212.5t-199.5 -426.5q-143 -305 -346 -632q-29 -46 -43.5 -56t-40.5 -10h-131zM463 1133l147 229h181l-203 -229h-125z" />
<glyph unicode="&#xfe;" horiz-adv-x="987" d="M16 -383q23 31 30.5 53t19.5 97l235 1490q14 100 14 129q0 24 -4 44l140 32l-105 -663q12 18 24.5 34.5t41 43.5t59.5 46t77.5 33.5t96.5 14.5q116 0 186 -78q78 -88 78 -256q0 -183 -67.5 -334.5t-179 -236t-240.5 -84.5q-38 0 -68.5 7.5t-54.5 23t-37.5 27.5t-32.5 32 l-47 -305q-10 -59 -10 -89q0 -31 18 -61h-174zM270 256q0 -89 48 -131.5t106 -42.5q103 0 186 79.5t128.5 211t45.5 286.5q0 211 -161 211q-116 0 -222 -135q-48 -64 -89.5 -214t-41.5 -265z" />
<glyph unicode="&#xff;" horiz-adv-x="876" d="M10 -383q130 122 228 309q27 50 39 94t12 109q0 92 -24.5 231.5t-61.5 260.5q-23 72 -45.5 120.5t-44.5 74t-34.5 35t-35.5 21.5l45 60q25 31 59 31q32 0 64 -40.5t57 -106t41 -118.5t29 -108q25 -103 36.5 -199.5t10 -147.5t-1.5 -98q236 509 295 674q17 46 20 77t0 58 h150q-35 -115 -77.5 -212.5t-199.5 -426.5q-143 -305 -346 -632q-29 -46 -43.5 -56t-40.5 -10h-131zM293 1235q0 48 29 76t63 28q29 0 49.5 -10t28.5 -26t11 -28t3 -24q0 -37 -25 -68.5t-73 -31.5q-43 0 -64.5 25t-21.5 59zM598 1235q0 47 28.5 75.5t63.5 28.5 q30 0 50.5 -10.5t28.5 -27t10.5 -28t2.5 -22.5q0 -37 -24.5 -68.5t-73.5 -31.5q-43 0 -64.5 25.5t-21.5 58.5z" />
<glyph unicode="&#x152;" horiz-adv-x="1460" d="M127 514q0 59 7.5 127.5t27.5 154t50.5 165.5t81.5 157.5t115.5 134.5t157.5 92t203 35q35 0 164 -16q110 -11 172 -8q27 0 169.5 5t166.5 5q60 0 73.5 -9.5t6.5 -56.5l-13 -71q-39 19 -85 25t-134 6q-62 0 -213 -7l-76 -473h173q117 0 165 17l-20 -131q-50 16 -152 16 h-180l-92 -576q156 -8 252 -8q69 0 118.5 4t66.5 7.5t61 13.5l-27 -55q-23 -45 -39 -56.5t-51 -11.5q-96 0 -191 2t-153.5 4t-65.5 2q-1 0 -62.5 -7t-130.5 -14t-89 -7q-69 0 -130.5 14t-123 51t-105 95.5t-71 154t-27.5 219.5zM260 526q0 -106 17 -185.5t45 -127 t69.5 -76.5t84 -39t95.5 -10q109 0 203 57l170 1078q-20 15 -35.5 23.5t-59.5 19t-101 10.5q-82 0 -152.5 -32t-119 -84t-87.5 -121.5t-62.5 -140t-39 -143.5t-21.5 -129t-6 -100z" />
<glyph unicode="&#x153;" horiz-adv-x="1425" d="M76 371q0 54 10 114t31 129.5t59.5 131.5t90 113.5t127.5 81.5t167 30q61 0 110.5 -17.5t77.5 -39t49.5 -55.5t29 -52t14.5 -43q23 34 39.5 54.5t56 55.5t86.5 58q80 39 162 39q38 0 68.5 -8.5t49.5 -21.5t33 -31t20.5 -33t10 -32.5t4 -24.5t0.5 -13q0 -18 -4 -40 t-17.5 -61.5t-50 -83.5t-90.5 -81q-65 -43 -135 -65.5t-115.5 -26.5t-125.5 -5q-15 -82 -15 -120q0 -35 4 -65.5t17 -64t33.5 -57.5t56.5 -39.5t84 -15.5q59 0 118.5 29t137.5 102l-8 -59q-5 -36 -14.5 -56t-35.5 -41q-104 -75 -229 -75q-186 0 -256 184 q-24 -33 -36.5 -48.5t-45 -46.5t-62.5 -46.5t-79.5 -29t-106.5 -13.5q-81 0 -144 31.5t-100.5 86.5t-57 123.5t-19.5 147.5zM207 358q0 -276 199 -276q76 0 137 44t96.5 108t59 143.5t32 143t8.5 112.5q0 65 -14.5 115t-57 86t-110.5 36q-75 0 -136.5 -34t-100.5 -87 t-65 -122.5t-37 -136.5t-11 -132zM856 535q53 4 85.5 8.5t84 21t94.5 43.5q127 84 127 176q0 42 -22.5 64t-61.5 22q-90 0 -188 -104q-64 -69 -119 -231z" />
<glyph unicode="&#x178;" horiz-adv-x="1095" d="M104 1231l11 63q7 42 30 57t60 15q132 0 262 -178q49 -66 84.5 -133t51.5 -109.5t40 -114.5q95 157 156.5 241t183.5 216q54 55 73 66.5t68 11.5h105q-99 -80 -166.5 -151.5t-175.5 -213.5q-203 -267 -230 -436l-53 -336q-18 -117 -18 -161q0 -41 12 -68h-190 q14 21 21.5 37t20.5 62.5t25 117.5l60 381q8 64 8 80q0 95 -60 232t-141 239q-74 100 -172 100q-25 0 -66 -18zM473 1606q0 49 30.5 77.5t65.5 28.5q24 0 42.5 -7.5t28 -18t15.5 -24.5t7.5 -23t1.5 -17q0 -40 -26.5 -72t-76.5 -32q-44 0 -66 26t-22 62zM788 1606 q0 48 30.5 77t66.5 29q31 0 51.5 -10.5t29 -27.5t11 -29t2.5 -23q0 -40 -25.5 -72t-76.5 -32q-45 0 -67 27t-22 61z" />
<glyph unicode="&#x2c6;" horiz-adv-x="1024" d="M360 1147l281 201h111l118 -201h-129l-65 106l-129 -106h-187z" />
<glyph unicode="&#x2dc;" horiz-adv-x="1024" d="M330 1223q85 100 178 100q38 0 127 -27q96 -26 135 -26q29 0 53.5 10t36 20t27.5 27l49 -43q-24 -27 -37.5 -41t-39.5 -35t-53.5 -31t-57.5 -10q-46 0 -138 27q-104 31 -125 33h-14q-26 0 -45.5 -10.5t-52.5 -38.5z" />
<glyph unicode="&#x2000;" horiz-adv-x="889" />
<glyph unicode="&#x2001;" horiz-adv-x="1778" />
<glyph unicode="&#x2002;" horiz-adv-x="889" />
<glyph unicode="&#x2003;" horiz-adv-x="1778" />
<glyph unicode="&#x2004;" horiz-adv-x="592" />
<glyph unicode="&#x2005;" horiz-adv-x="444" />
<glyph unicode="&#x2006;" horiz-adv-x="296" />
<glyph unicode="&#x2007;" horiz-adv-x="296" />
<glyph unicode="&#x2008;" horiz-adv-x="222" />
<glyph unicode="&#x2009;" horiz-adv-x="355" />
<glyph unicode="&#x200a;" horiz-adv-x="98" />
<glyph unicode="&#x2010;" horiz-adv-x="475" d="M68 451l16 108h328l-17 -108h-327z" />
<glyph unicode="&#x2011;" horiz-adv-x="475" d="M68 451l16 108h328l-17 -108h-327z" />
<glyph unicode="&#x2012;" horiz-adv-x="475" d="M68 451l16 108h328l-17 -108h-327z" />
<glyph unicode="&#x2013;" horiz-adv-x="1024" d="M59 457l17 98h893l-17 -98h-893z" />
<glyph unicode="&#x2014;" horiz-adv-x="2048" d="M72 457l16 98h1892l-16 -98h-1892z" />
<glyph unicode="&#x2018;" horiz-adv-x="364" d="M188 1171q0 29 14 63.5t41 68t76.5 56t110.5 23.5q-56 -36 -88 -67t-59 -84q15 -2 22.5 -4t21.5 -9t20.5 -20.5t6.5 -34.5q0 -42 -25 -67t-59 -25q-40 0 -61 29.5t-21 70.5z" />
<glyph unicode="&#x2019;" horiz-adv-x="364" d="M166 1071q34 22 54.5 37.5t47 46.5t45.5 70q-15 2 -23.5 4.5t-21.5 9t-19.5 20t-6.5 33.5q0 38 23 65t61 27q40 0 61 -29.5t21 -68.5q0 -30 -13.5 -64t-40 -68.5t-76 -58t-112.5 -24.5z" />
<glyph unicode="&#x201a;" horiz-adv-x="364" d="M20 -162q35 22 55.5 37.5t47 46t45.5 68.5q-15 2 -23.5 4.5t-22 9t-20 20t-6.5 33.5q0 39 23 66t61 27q40 0 61 -30t21 -69q0 -23 -8 -49.5t-26.5 -56t-45 -52.5t-69 -38.5t-93.5 -16.5z" />
<glyph unicode="&#x201c;" horiz-adv-x="583" d="M162 1171q0 31 14 65.5t41.5 68.5t76 56t109.5 23q-53 -33 -86 -65t-61 -88q16 -3 23 -4.5t21.5 -8.5t21 -20.5t6.5 -34.5q0 -43 -24.5 -67.5t-59.5 -24.5q-40 0 -61 29t-21 71zM436 1171q0 30 14 64.5t41 68.5t76 56.5t111 23.5q-57 -36 -89 -67t-59 -86q72 -6 72 -68 q0 -41 -24.5 -66.5t-59.5 -25.5q-40 0 -61 29.5t-21 70.5z" />
<glyph unicode="&#x201d;" horiz-adv-x="583" d="M139 1073q35 22 55.5 37.5t47 46t45.5 68.5q-15 2 -23.5 4.5t-22 9t-20 20t-6.5 33.5q0 38 23 65t61 27q40 0 61 -29.5t21 -68.5q0 -23 -8 -49.5t-26.5 -56t-45 -52.5t-69 -38.5t-93.5 -16.5zM414 1073q54 34 86.5 65.5t60.5 86.5q-15 2 -23.5 4.5t-22 9t-20 20 t-6.5 33.5q0 37 22 64.5t62 27.5q41 0 61.5 -29.5t20.5 -68.5q0 -30 -13.5 -64t-40 -68.5t-75.5 -57t-112 -23.5z" />
<glyph unicode="&#x201e;" horiz-adv-x="583" d="M20 -162q54 35 87 66t61 86q-15 2 -23.5 4.5t-22 9t-20 20.5t-6.5 35q0 35 21.5 63t62.5 28t61.5 -30t20.5 -69q0 -23 -8 -49.5t-26.5 -55.5t-45 -52t-69 -39t-93.5 -17zM295 -162q34 22 53.5 37.5t46 46t45.5 68.5q-15 2 -23.5 4.5t-21.5 9t-19.5 20t-6.5 33.5 q0 37 21.5 65t62.5 28t61.5 -30t20.5 -69q0 -29 -13 -62.5t-39.5 -68t-75.5 -58t-112 -24.5z" />
<glyph unicode="&#x2022;" d="M240 717q-3 106 72.5 180t181.5 74q108 0 183 -73.5t75 -180.5t-75.5 -182.5t-182.5 -75.5q-105 0 -179.5 75.5t-74.5 182.5z" />
<glyph unicode="&#x2026;" horiz-adv-x="1425" d="M86 59q0 35 25 63t65 28q39 0 58.5 -21.5t19.5 -56.5q0 -40 -26 -65t-62 -25q-30 0 -55 18t-25 59zM561 59q0 35 25 63t65 28q39 0 58.5 -21.5t19.5 -56.5q0 -40 -26 -65t-62 -25q-30 0 -55 18t-25 59zM1036 59q0 35 25 63t65 28q39 0 58.5 -21.5t19.5 -56.5 q0 -40 -26 -65t-62 -25q-30 0 -55 18t-25 59z" />
<glyph unicode="&#x202f;" horiz-adv-x="355" />
<glyph unicode="&#x2039;" horiz-adv-x="509" d="M104 508q30 26 48.5 44.5t54 57.5t74.5 93.5t79 123.5h76q-77 -203 -188 -319q68 -153 114 -311h-75q-71 150 -99.5 199.5t-83.5 111.5z" />
<glyph unicode="&#x203a;" horiz-adv-x="509" d="M82 193q69 194 186 321q-72 163 -114 311h75q67 -144 100 -199.5t85 -111.5q-29 -26 -48.5 -45t-56 -58.5t-75 -94.5t-78.5 -123h-74z" />
<glyph unicode="&#x205f;" horiz-adv-x="444" />
<glyph unicode="&#x20ac;" d="M35 485l35 60q17 29 26.5 34t44.5 5h58q3 63 16 137h-59q-54 0 -105 -10l35 59q16 28 28 33.5t48 5.5h76q27 98 71.5 180.5t108 149t151.5 104t191 37.5q22 0 42 -2t35 -4.5t30 -7.5t23.5 -8t20 -9.5t15 -9t12.5 -8.5l8 -6q25 -17 25 -60q0 -24 -6 -45l-21 -71 q-36 62 -61 84q-50 45 -135 45q-134 0 -232.5 -102t-146.5 -267h268q62 0 143 6l-32 -53q-18 -30 -35 -35.5t-76 -5.5h-291q-13 -75 -16 -137h245q63 0 144 6l-33 -53q-18 -30 -35 -35.5t-76 -5.5h-247q9 -412 282 -412q47 0 91 13t81.5 37.5t59 41.5t49.5 43l-17 -90 q-5 -32 -12 -47q-15 -21 -24 -27q-87 -73 -254 -73q-89 0 -158.5 33.5t-111 85t-68.5 122.5t-37.5 136.5t-11.5 136.5h-58q-48 0 -104 -11z" />
<glyph unicode="&#x2122;" horiz-adv-x="1757" d="M131 1251l27 74q8 26 33 37.5t85 11.5q25 0 191.5 -6.5t196.5 -5.5q108 0 188 33l-25 -60q-6 -17 -13 -26t-28 -17t-57 -8q-53 0 -186 10l-90 -577q-17 -116 -17 -123q0 -26 13 -49h-144q12 18 17.5 28t13 37.5t14.5 69.5l99 614q-132 6 -192.5 -3t-125.5 -40zM817 545 q12 17 17.5 26.5t15 37.5t16.5 71l101 541q10 53 10 82t-12 61h112l197 -655l393 655h113q-23 -33 -39 -135l-70 -541q-10 -65 -10 -92q0 -29 16 -51h-149q34 53 45 135l74 506l-383 -641h-31l-189 641l-77 -457q-21 -121 -21 -141q0 -25 12 -43h-141z" />
<glyph unicode="&#x25fc;" horiz-adv-x="962" d="M0 0v963h963v-963h-963z" />
</font>
</defs>
</svg>
